<?xml version="1.0" encoding="UTF-8"?>
<!DOCTYPE svg PUBLIC "-//W3C//DTD SVG 1.1//EN" "http://www.w3.org/Graphics/SVG/1.1/DTD/svg11.dtd">
<!-- Creator: CorelDRAW -->
<svg xmlns="http://www.w3.org/2000/svg" xml:space="preserve" width="24.7299mm" height="24.656mm" version="1.1" style="shape-rendering:geometricPrecision; text-rendering:geometricPrecision; image-rendering:optimizeQuality; fill-rule:evenodd; clip-rule:evenodd"
viewBox="0 0 3604.46 3593.68"
 xmlns:xlink="http://www.w3.org/1999/xlink"
 xmlns:xodm="http://www.corel.com/coreldraw/odm/2003">
 <defs>
  <style type="text/css">
   <![CDATA[
    .fil0 {fill:#51AF00}
    .fil1 {fill:white}
   ]]>
  </style>
 </defs>
 <g id="Plan_x0020_1">
  <metadata id="CorelCorpID_0Corel-Layer"/>
  <g id="_2013829086896">
   <path class="fil0" d="M1730.82 2.57c-136.8,19.57 -209.81,98.27 -330.76,126.98 -196.74,46.71 -336.82,-67.78 -517.98,165.17l-106.69 120.99c-50.15,42.08 -78.46,51.47 -143.35,83.94 -50.61,25.35 -108.22,46.77 -151.38,76.56 -96.97,66.93 -118.4,158.68 -157.88,297.96 -16.92,59.7 -40.53,116.37 -72.47,154.92 -18.19,21.96 -32.94,38.13 -52.31,58.83 -16.97,18.12 -35.2,43.3 -53.56,63.36 -97.71,106.71 -103.21,177.48 -81.32,350.3 24.52,193.56 9.21,206.77 -43.74,379.6 -76.94,251.21 96.56,342.58 148.26,498.14 69.7,209.74 -29.97,322.86 199.08,484.7 264.8,187.1 145.87,99.91 322.61,360.17 120.46,177.38 343.54,111.89 483.54,199.8 77.88,48.9 184.74,148.64 289.63,165.68 138.98,22.58 255.83,-57.53 393.71,-53.8 142.88,3.86 238.77,77.63 393.02,25.58 95.77,-32.31 180.92,-132.1 271.96,-183.53 144.48,-81.65 341.62,-20.14 457.91,-225.79 140.33,-248.14 82.1,-192.5 314.81,-367.65 107.16,-80.65 121.32,-149.41 135.81,-319.11 16.73,-196.08 36.5,-197.25 114.01,-342.26 85.97,-160.84 69.98,-204.55 17.93,-360.42 -17.04,-51 -45.93,-118.12 -52.91,-174.07 -6.95,-55.71 6.7,-153.73 11.4,-210.16 19.57,-235.1 -81.34,-260.99 -180.14,-382.59 -79.79,-98.22 -71.54,-71.94 -123.15,-221.09 -45.37,-131.13 -74.09,-216.03 -185.27,-270.34 -98.95,-48.33 -235.77,-82.28 -300.06,-155.18 -31.31,-35.49 -73.17,-82 -109.61,-118.15 -11.86,-11.76 -15.39,-18.44 -26.53,-29.03 -9.12,-8.69 -21.27,-16.97 -31.18,-24.57 -22.5,-17.29 -43.2,-30.13 -74.33,-41.9 -125.58,-47.56 -277.73,9.97 -411.43,-33.04 -109.91,-35.36 -220.86,-118.13 -347.65,-99.99z"/>
   <path class="fil1" d="M1658.7 313.12c-418.12,47.33 -723.08,216.55 -984.43,506.7 -219.29,243.45 -401.67,660.44 -357.52,1121.28 73.77,769.78 758.7,1421.91 1628.58,1339.18 210.29,-20.01 412.8,-87.38 570.19,-175.14 176.2,-98.27 299.97,-205.7 411.8,-331.84 403.34,-454.95 481.77,-1151.29 181.64,-1691.38 -69.15,-124.43 -141.64,-220.79 -234.21,-320.67 -254.72,-274.85 -724.61,-503.77 -1216.05,-448.13z"/>
   <path class="fil0" d="M1658.45 356.56c-439.56,50.01 -748.65,258.52 -952.71,494.92 -530.21,614.22 -447.52,1530.03 149.82,2040.19 769.81,657.46 1940.67,364.75 2306.95,-605.53 160.02,-423.91 90.28,-930.22 -160.4,-1296.68 -13.28,-19.41 -23.54,-33.2 -36.9,-51.95 -34.46,-48.32 -82.53,-102.25 -125.52,-146.51 -273.64,-281.74 -695.42,-489.72 -1181.23,-434.45z"/>
   <path class="fil1" d="M1674.66 2364.54c158.16,-282.25 213.09,-371.06 401.08,-642.8 88.3,-127.65 219.65,-288.61 322.57,-410.59l146.38 -164.44c15,-14.49 25.24,-28.6 39.09,-44.29 15,-16.99 29.66,-27.62 44.57,-44.22 28.73,-31.95 55.21,-57.63 84.32,-89.2l-0.71 -28.89c-33.36,-20.59 -62.67,-1.56 -99.24,13.63 -132.65,55.07 -300.24,188.18 -401.16,281.9l-71.13 67.67c-135.67,125.07 -390.59,421.31 -514.67,584.59 -19.53,25.7 -39.57,54.51 -60.52,75.94 -47.82,-0.31 -37.91,-20.38 -78.09,-76.62 -77.77,-108.86 -67.73,-86.14 -140.91,-163.68l-87.74 -67.64c-75.08,-40.53 -162.66,-50.84 -242.12,-10.87 -46.99,23.64 -157.97,101.66 -147.46,156.31 24.44,17.18 33.44,9.78 62.13,19.73 170.08,58.96 397.57,467.12 481.64,630.28 105.31,204.39 202.86,18.71 261.98,-86.8z"/>
  </g>
 </g>
</svg>
