<?xml version="1.0" encoding="UTF-8"?>
<!DOCTYPE svg PUBLIC "-//W3C//DTD SVG 1.1//EN" "http://www.w3.org/Graphics/SVG/1.1/DTD/svg11.dtd">
<!-- Creator: CorelDRAW -->
<svg xmlns="http://www.w3.org/2000/svg" xml:space="preserve" width="7.8972mm" height="7.8935mm" version="1.1" style="shape-rendering:geometricPrecision; text-rendering:geometricPrecision; image-rendering:optimizeQuality; fill-rule:evenodd; clip-rule:evenodd"
viewBox="0 0 45.78 45.76"
 xmlns:xlink="http://www.w3.org/1999/xlink"
 xmlns:xodm="http://www.corel.com/coreldraw/odm/2003">
 <defs>
  <style type="text/css">
   <![CDATA[
    .fil0 {fill:#395896}
    .fil1 {fill:#FDFDFD}
   ]]>
  </style>
 </defs>
 <g id="Plan_x0020_1">
  <metadata id="CorelCorpID_0Corel-Layer"/>
  <g id="_2049059712288">
   <path class="fil0" d="M20.7 0.1c-12.69,1.23 -21.8,12.5 -20.59,25 0.54,5.63 2.77,9.75 6.27,13.61 0.38,0.42 1.01,1.05 1.49,1.44 4.87,3.95 10.44,6.16 17.25,5.49 5.63,-0.55 9.73,-2.77 13.6,-6.27 2.28,-2.06 4.44,-5.4 5.65,-8.65 3.49,-9.32 0.21,-19.24 -6.49,-25.13 -3.76,-3.31 -10.11,-6.18 -17.18,-5.49z"/>
   <path class="fil1" d="M19.67 18.78l-3.16 0 0 4.4 3.14 0 0.04 14.81 5.31 0.04 0 -14.82 3.5 -0.03 0.74 -4.39 -4.23 -0c-0.27,-5.26 1.04,-4.33 4.37,-4.55l0.02 -4.51c-2.86,-0.41 -5.98,-0.24 -7.92,1.25 -0.69,0.53 -1.48,1.85 -1.69,3.14 -0.25,1.51 0.04,3.18 -0.12,4.68z"/>
  </g>
 </g>
</svg>
