<?xml version="1.0" encoding="UTF-8"?>
<!DOCTYPE svg PUBLIC "-//W3C//DTD SVG 1.1//EN" "http://www.w3.org/Graphics/SVG/1.1/DTD/svg11.dtd">
<!-- Creator: CorelDRAW -->
<svg xmlns="http://www.w3.org/2000/svg" xml:space="preserve" width="80.7041mm" height="41.821mm" version="1.1" style="shape-rendering:geometricPrecision; text-rendering:geometricPrecision; image-rendering:optimizeQuality; fill-rule:evenodd; clip-rule:evenodd"
viewBox="0 0 4100.38 2124.82"
 xmlns:xlink="http://www.w3.org/1999/xlink"
 xmlns:xodm="http://www.corel.com/coreldraw/odm/2003">
 <defs>
  <style type="text/css">
   <![CDATA[
    .fil0 {fill:#68486B;fill-rule:nonzero}
   ]]>
  </style>
 </defs>
 <g id="Plan_x0020_1">
  <metadata id="CorelCorpID_0Corel-Layer"/>
  <g id="_2014084958752">
   <path class="fil0" d="M1003.97 1803.86c-5.19,-9.6 -6.94,-24.08 -4.94,-43.39 1.23,-34.43 -1.65,-94.01 -8.72,-180.87 -7.3,-90.59 -17.15,-188.39 -29.89,-294.17 -13.25,-110.85 -26.07,-197.23 -38,-256.16 -10.52,-51.7 -21.61,-73.81 -32.86,-65.42 -11.25,8.31 -30.23,52.2 -56.21,129.6 -10.44,30.42 -22.12,65.92 -35.03,106.36 -12.63,39.77 -23.66,75.43 -33.12,107.32 -21.04,68.53 -36.48,107.85 -46.92,119.44 -9.96,7.89 -26.04,12.63 -48.41,14.03 -22.34,1.4 -42.49,-0.87 -60.31,-6.9 -15.63,-5.58 -30.93,-14.45 -45.63,-26.71 -14.79,-12.23 -33.54,-32.44 -56.21,-60.95 -22.93,-28.85 -54.81,-71.67 -96.06,-129.21 -32.64,-44.45 -58.54,-79.31 -77.2,-103.78 -19.06,-24.83 -32.86,-41.54 -41.42,-49.92 -8.7,-8.53 -14.29,-11.34 -16.89,-8.36 -10.22,12.82 -3.65,62.05 18.97,145.71 21.91,80.63 50.96,170.04 86.8,267.11 34.26,92.86 68.45,173.15 102.63,241.88 6.26,12.8 11.34,24.47 15.55,34.91 4.18,10.44 5.92,17.43 5.33,21.04 0.9,10.11 -4.77,18.33 -16.95,24.9 -12.21,6.51 -28.01,9.96 -47.48,10.38 -34.61,0.71 -61.12,-6.99 -79.39,-23.29 -18.58,-16.33 -42.09,-52.98 -71.25,-111.19 -31.88,-65.25 -68.87,-154.49 -111.36,-270.65 -44.96,-122.44 -80.37,-232.4 -105.21,-327.65 -21.36,-81.22 -38.84,-154.29 -52.34,-218.3 -13.89,-65.67 -21.13,-110.94 -21.35,-134.85 -2.05,-73.72 38.45,-101.25 121.21,-80.96 32.22,7.15 62.22,20.88 89.58,41.17 27.14,20.04 58.93,54.89 95.19,103.72 35.5,47.91 81.36,116.13 136.47,202.99 36.76,57.22 64.29,99.03 83.01,126.31 18.44,27 32.16,43.58 41.2,50.07 8.87,6.4 15.77,6.9 20.63,1.4 3.37,-3.37 8.87,-17.34 16.84,-41.9 7.89,-24.84 17.04,-55.15 27.19,-91.35 35.03,-127.05 64.18,-222.6 86.8,-282.3 23.18,-61.23 44.56,-98.87 63.93,-111.86 26.89,-19.14 60.84,-24.9 101.34,-17.09 40.52,7.63 78.66,27.05 114.16,57.7 50.97,45.04 88.68,124.18 112.93,234.39 23.23,105.6 37.38,255.44 42.66,441.27 4.6,135.1 6.56,233.49 6.34,299.55 -0.42,64.1 -3.56,108.07 -9.62,133.08 -5.92,24.73 -15.21,39.35 -27.87,44.03 -11.34,4.68 -25.73,7.15 -43.16,7.49 -17.51,0.39 -32.47,-1.74 -45.13,-6.4 -14.62,-5.22 -24.64,-12.6 -29.8,-22.22z"/>
   <path class="fil0" d="M1632.85 1581.4c-1.94,-10.84 -22.48,-2.22 -44.93,17.34 -22.2,18.41 -43.38,31.32 -63.45,39.04 -20.04,7.55 -43.22,11.59 -69.38,12.18 -48.47,1.04 -88.99,-10.61 -121.88,-35.11 -33.09,-24.81 -62.53,-65.67 -88.49,-123.71 -14.65,-32.47 -27.39,-75.83 -38,-130.92 -10.83,-56.38 -18.49,-111.95 -22.76,-166.51 -4.35,-55.79 -2.72,-95.81 5.08,-119.15 8.34,-20.15 25.49,-33.79 51.47,-40.86 26.04,-6.99 54.17,-5.33 84.08,4.94 21.27,6.35 34.85,16.61 40.61,30.9 5.72,14.23 7.8,40.61 6.14,78.75 -0.22,20.43 0.81,46.9 3.23,79.14 2.28,31.8 5.33,62.22 9.09,91.21 7.33,57.14 15.88,100.38 25.82,130.61 22.03,64.27 59.61,69.35 114.25,15.6 19.06,-17.26 36.57,-41.98 52.68,-74.45 10.27,-22.42 21.13,-51.1 32.44,-86.21 11.51,-35.59 22.28,-70.69 32.55,-105.01 5.28,-17.85 9.88,-33.95 13.81,-48.58 3.14,-8.14 5.5,-15.55 7.15,-22.2 4.04,-15.63 8.39,-27.2 13.08,-34.77 4.52,-7.63 12.32,-12.57 23.1,-14.87 10.75,-2.39 28.18,-4.18 52.17,-5.59 47.43,-1.32 80.74,13.13 99.71,42.99 3.79,5.98 5.5,15.61 5.08,28.99 -0.39,13.25 -3.76,34.38 -10.1,63.12 -9.12,50.88 -15.52,95.53 -19.06,134.37 -3.54,38.25 -20.4,111.53 -22.11,170.55 -13.81,474.3 -68.39,601.94 -219.85,555.41 -66.48,-20.46 94.1,-236.04 48.47,-487.18z"/>
   <path class="fil0" d="M1958.42 796.42c10.5,-44.31 19.06,-75.94 25.71,-94.29 6.73,-18.55 14.31,-31.21 23.09,-37.97 21.53,-17.56 45.6,-23.82 72.41,-18.72 26.55,5.25 49.17,18.07 67.72,38.2 18.24,20.23 25.82,44 22.59,71.42 -1.8,8.64 -6.82,30.42 -14.79,64.94 -7.97,34.21 -17.01,72.65 -27.19,115.31 -17.4,73.3 -31.8,140.96 -43.16,203.32 -9.26,44.48 -18.47,100.27 -27.33,166.58 -8.73,64.52 -10.86,124.77 -6.77,181.24 4.13,55.03 21.05,93.6 50.63,116.47 5.84,4.27 11.59,7.86 17.34,10.97 12.24,6.76 22.03,14.39 29.61,22.79 9.93,12.07 12.21,26.04 7.13,41.93 -4.99,15.77 -16.11,28.68 -33.28,38.84 -17.18,10.13 -38.87,13.16 -65.42,9.06 -71.64,-17.59 -119.66,-58.94 -144.16,-125.67 -25.23,-68.7 -37.21,-145.54 -35.16,-231.49 2.05,-89.27 7.63,-165.52 17.04,-227.52 14.37,-109.31 35.56,-224.25 64.01,-345.41z"/>
   <path class="fil0" d="M2619.91 1665.33c-5.27,-12.07 -9.54,-32.22 -12.49,-60.81 -3.79,-51.52 -11.45,-77.68 -22.87,-77.43 -1.97,0 -11.51,6.26 -28.51,18.67 -16.84,12.4 -36.74,27.61 -59.41,45.63 -32.47,25.11 -56.46,42.49 -72.07,52.09 -15.55,9.71 -30.98,16.78 -46.31,21.38 -62.19,18.58 -114.64,17.34 -158.03,-3.88 -43.86,-21.35 -72.65,-59.83 -86.35,-116.29 -22.28,-119.25 16.17,-248.28 121.04,-388.4 49.05,-65.02 109.14,-115.06 179.67,-149.27 98.92,-50.46 188.92,-57.33 267.5,-20.29 47.09,20.57 75.04,49.09 83.94,85.4 15.27,57.22 -5.05,86.61 -60.67,89.41 -37.13,1.01 -68.64,-12.32 -94.52,-40.36 -10.19,-11.17 -22.12,-16.58 -35.72,-16.19 -13.59,0.34 -31.49,6.93 -53.35,19.56 -59.24,35.59 -111.1,88.2 -155.42,156.82 -42.99,66.57 -66.18,128.45 -70.61,185.93 -4.01,44.2 1.96,65.72 18.1,65.41 13.31,-0.34 56.1,-42.09 130.56,-127.72 19.75,-22.71 38.31,-43.17 55.74,-61.57 17.59,-18.49 29.86,-30.42 36.85,-35.5 47.01,-30.48 96.4,-30.48 147.5,0 21.35,11.25 36.57,35.75 45.54,73.13 8.87,36.73 14.37,96.74 16.59,178.01 1.66,31.32 1.99,55.74 0.98,73.24 -0.9,17.4 -2.97,30.31 -6.14,38.79 -3.14,8.47 -8.08,14.87 -14.73,19.16 -11,7.64 -26.27,11.51 -46.11,11.9 -19.64,0.42 -36.96,-2.53 -52,-9.12 -13.8,-6.48 -23.43,-15.68 -28.68,-27.7z"/>
   <path class="fil0" d="M3007.33 763.7c19.87,-45.12 35.25,-77.34 45.85,-96.06 10.58,-18.92 20.96,-31.82 31.29,-38.73 25.65,-17.9 51.47,-24.42 77.68,-19.14 25.99,5.33 46.36,18.41 60.98,39.04 14.54,20.54 17.23,44.71 8.31,72.74 -3.7,8.78 -13.33,30.9 -28.68,66.18 -15.21,34.82 -32.38,73.95 -51.64,117.42 -32.94,74.62 -61.62,143.49 -86.01,206.94 -18.78,45.21 -39.66,102.02 -62.47,169.4 -22.2,65.58 -36.82,126.82 -44.37,184.15 -7.27,55.9 1.94,95.03 27.33,118.2 5.11,4.29 10.11,7.97 15.47,11.17 10.94,6.82 19.34,14.54 25.23,23.09 7.54,12.15 7.07,26.38 -1.32,42.58 -8.39,15.94 -22.42,29.1 -41.9,39.35 -19.47,10.3 -42.24,13.33 -68.39,9.23 -69.2,-17.85 -109.39,-59.83 -120.56,-127.47 -11.42,-69.79 -7.71,-147.84 12.07,-235.15 20.66,-90.65 42.01,-168.33 64.35,-231.27 37.32,-111.27 82.79,-228.3 136.78,-351.67z"/>
   <path class="fil0" d="M3301.55 754.55c22.62,-45.35 39.85,-77.82 51.53,-96.65 11.76,-19 23.01,-31.97 33.79,-38.87 26.71,-18.1 53.18,-24.5 79.06,-19.23 25.87,5.33 45.6,18.49 59.19,39.2 13.47,20.6 14.79,45.02 4.18,73.14 -4.29,8.78 -15.21,31.06 -32.64,66.51 -17.23,34.97 -36.73,74.34 -58.6,117.98 -37.38,75.04 -70.02,144.25 -98.28,208.04 -21.36,45.38 -45.64,102.41 -72.41,170.18 -25.99,65.76 -44.23,127.32 -54.98,184.94 -10.55,56.13 -3.45,95.42 20.71,118.68 4.83,4.35 9.68,8.05 14.84,11.25 10.61,6.9 18.61,14.57 24.11,23.18 6.88,12.23 5.58,26.52 -3.79,42.71 -9.37,16.02 -24.16,29.19 -44.37,39.54 -20.15,10.35 -43.16,13.39 -69.12,9.29 -68.56,-17.99 -106.61,-60.09 -113.94,-128.02 -7.55,-70.05 0.59,-148.46 25.51,-236.13 25.79,-91.07 51.83,-169.06 77.74,-232.34 43.81,-111.78 96.17,-229.4 157.46,-353.41z"/>
   <path class="fil0" d="M3771.62 1664.69c-2.22,-12.32 -1.15,-32.87 3.45,-61.97 9.93,-52.59 9.12,-79.22 -2.56,-78.97 -2.13,0.09 -13.44,6.4 -34.15,19.06 -20.57,12.57 -44.9,28.12 -72.82,46.53 -39.88,25.65 -68.98,43.22 -87.53,53.09 -18.49,9.85 -36.18,17.09 -53.04,21.78 -68.42,18.97 -121.63,17.56 -160.33,-3.96 -39.2,-21.78 -58.26,-60.9 -57.19,-118.49 8.95,-121.65 82.59,-253.33 227.09,-396.48 67.64,-66.48 142.51,-117.7 223.78,-152.61 114.75,-51.69 208.74,-58.76 279.18,-20.91 42.74,21.07 63.62,50.23 62.86,87.39 0.34,58.43 -28.43,88.57 -86.04,91.38 -38.22,1.07 -66.74,-12.54 -85.79,-41.26 -7.46,-11.34 -18.24,-16.84 -32.16,-16.53 -14.03,0.42 -34.02,7.1 -59.97,20.06 -69.94,36.32 -137.18,90.09 -200.77,160.19 -61.74,68.06 -102.01,131.26 -121.8,189.85 -15.88,45.04 -15.46,67.07 0.99,66.65 13.64,-0.25 68.62,-42.91 167.65,-130.36 26.04,-23.07 50.54,-43.95 73.31,-62.7 22.84,-18.92 38.61,-31.06 47.17,-36.34 56.13,-31.15 106.75,-31.15 150.81,0 18.75,11.51 27.79,36.48 26.97,74.62 -0.82,37.5 -11.25,98.65 -30.85,181.66 -6.73,31.85 -12.91,56.77 -18.66,74.62 -5.58,17.74 -11.09,30.81 -16.58,39.54 -5.5,8.62 -12.24,15.1 -20.15,19.53 -13.3,7.64 -29.97,11.68 -50.21,12.1 -20.21,0.39 -37.16,-2.64 -50.77,-9.29 -12.43,-6.57 -19.76,-16.06 -21.89,-28.2z"/>
   <path class="fil0" d="M1315.85 208.07c1.07,11.17 -4.69,25 -17.09,41.19 -3.03,4.18 -64.27,61.04 -68.78,66.07 -4.52,4.94 -9.29,9.85 -14.4,14.96 -4.99,4.99 -10.1,9.93 -15.18,14.87 -5.19,5.02 -9.96,9.43 -14.4,13.47 -14.31,12.91 -29.33,25.06 -45.04,36.57 -15.69,11.42 -31.74,21.38 -47.99,29.92 -16.19,8.56 -32.56,15.29 -49.17,20.23 -16.5,4.83 -32.69,7.21 -48.64,7.16 -17.43,-0.17 -32.97,-2.89 -46.61,-8.31 -13.64,-5.42 -25.4,-13.16 -35.25,-23.1 -10.02,-9.96 -18.07,-21.94 -24.41,-36.06 -6.23,-14.26 -10.75,-30.11 -13.3,-47.6 -2.64,-16.11 -3.45,-32.47 -2.81,-49.17 0.76,-16.84 2.89,-33.42 6.32,-49.7 3.39,-16.53 8.08,-32.38 14.09,-47.76 5.97,-15.47 12.97,-29.83 20.77,-43.05 4.86,-8.08 10.39,-16.19 16.7,-24.5 6.25,-8.39 12.99,-16.5 20.15,-24.42 7.15,-7.97 14.45,-15.38 22,-22.25 7.63,-6.93 15.21,-13.02 22.7,-18.35 4.83,-3.45 11,-7.38 18.67,-11.99 7.63,-4.52 15.77,-8.78 24.22,-12.82 8.64,-3.96 17.2,-7.3 25.73,-10.05 8.53,-2.69 16.11,-4.1 22.61,-4.01 10.42,0.08 18.72,0.98 25.23,2.64 6.4,1.71 12.21,4.6 17.32,8.47 2.47,1.94 5.45,4.91 8.82,8.87 3.45,4.04 6.65,8.39 9.77,13.08 3.11,4.75 5.84,9.52 8.14,14.2 2.3,4.69 3.62,8.73 3.96,11.9 0.22,3.31 -0.59,8.08 -2.64,14.57 -1.99,6.4 -4.35,13.13 -7.21,19.98 -2.81,6.87 -5.7,13.22 -8.56,19.14 -2.89,5.92 -5.19,10.04 -6.76,12.26 -5.98,8.36 -12.88,12.49 -20.77,12.38 -6.73,-0.06 -12.18,-2.27 -16.53,-6.96 -4.29,-4.6 -6.82,-10.36 -7.63,-17.35 -0.25,-2.47 0.56,-6.26 2.47,-11.42 1.96,-5.16 5.5,-11.09 10.66,-17.59 5.16,-6.65 9.12,-12.74 11.84,-18.33 2.61,-5.58 4.26,-9.37 4.94,-11.25 -3.7,-2.72 -8.08,-4.86 -13.16,-6.4 -5.08,-1.58 -9.77,-2.41 -14.06,-2.47 -6.09,0 -13.47,1.46 -22,4.52 -8.72,3.11 -17.43,7.04 -26.24,11.98 -8.78,4.94 -17.35,10.27 -25.45,16.19 -8.16,5.92 -14.9,11.68 -20.23,17.09 -15.38,15.88 -29.16,32.95 -41.37,51.22 -12.15,18.07 -21.42,38.05 -27.92,59.89 -2.53,8.98 -4.86,18.35 -6.9,28.04 -2.05,9.71 -3.62,19.47 -4.66,29.41 -1.01,9.96 -1.57,19.75 -1.57,29.52 -0.09,9.8 0.56,19.06 1.8,27.92 1.48,10.55 3.93,20.24 7.46,29.27 3.45,8.98 8.14,16.7 14.14,23.18 5.84,6.51 13.25,11.67 21.86,15.29 8.7,3.76 19.09,5.64 30.99,5.75 13.07,0.09 26.07,-1.82 39.15,-5.5 13.13,-3.79 26.04,-8.87 38.84,-15.32 12.74,-6.45 25.23,-13.95 37.66,-22.34 12.32,-8.44 24.16,-17.32 35.42,-26.63 11.34,-9.34 22.03,-18.63 32.22,-28.09 10.1,-9.37 124.69,-123.12 127.29,-126.48 7.72,4.26 12.07,10.27 12.83,18.07z"/>
   <path class="fil0" d="M1393.22 237.56c-1.32,-3.62 -3.45,-7.24 -6.65,-10.66 -3.11,-3.56 -6.65,-6.68 -10.58,-9.46 -3.99,-2.81 -8.17,-5.11 -12.35,-6.85 -4.26,-1.79 -8.31,-2.69 -11.92,-2.69 -2.95,0 -5.84,0.5 -8.53,1.57 -2.81,1.07 -5.45,2.47 -8.08,4.18 -2.53,1.74 -5.08,3.62 -7.38,5.75 -2.22,2.05 -4.44,4.04 -6.4,5.84 -5.92,6.01 -11.45,14.4 -16.37,25.23 -4.94,10.69 -9.03,22.25 -12.35,34.57 -3.28,12.26 -5.64,24.41 -7.21,36.6 -1.46,12.09 -1.88,22.53 -1.07,31.4 0.42,3.88 1.23,7.64 2.89,11.25 1.54,3.59 3.51,6.74 5.97,9.52 2.56,2.72 5.42,4.94 8.73,6.59 3.2,1.74 6.65,2.55 10.41,2.64 9.71,0.09 18.52,-1.82 26.47,-5.53 7.97,-3.7 15.07,-8.78 21.3,-15.38 6.15,-6.56 11.51,-14.42 16.02,-23.57 4.6,-9.2 8.23,-19.22 11,-30 2.81,-10.75 4.71,-22.28 5.7,-34.27 0.98,-12.07 1.12,-24.33 0.39,-36.73zm191.17 -42.57c0.17,3.11 -0.76,6.56 -2.55,10.19 -1.8,3.7 -4.18,7.41 -7.13,11.17 -2.98,3.7 -0.93,7.58 -4.69,11.12 -3.82,3.54 -38.89,23.57 -74.45,31.32 -5.44,1.15 -14.96,1.79 -22.06,2.38 -7.21,0.59 -13.39,0.9 -18.24,0.82 -2.05,0 -4.77,-0.42 -8.28,-1.15 -3.48,-0.73 -7.1,-1.66 -10.78,-2.78 -3.62,-1.09 -7.15,-2.33 -10.44,-3.7 -3.36,-1.4 -5.84,-2.89 -7.41,-4.26 1.99,6.87 3.79,13.78 5.33,20.77 1.74,6.99 2.75,14.14 3.23,21.53 0.22,3.23 0.17,7.15 -0.25,11.84 -0.39,4.6 -1.07,9.29 -1.97,13.97 -0.89,4.77 -1.96,9.29 -3.06,13.56 -1.23,4.46 -2.53,7.97 -3.93,10.78 -3.62,7.8 -7.46,14.79 -11.51,21.13 -4.04,6.23 -8.56,12.07 -13.8,17.4 -5.19,5.27 -11.09,10.3 -17.66,14.87 -6.59,4.69 -14.14,9.24 -22.95,13.5 -9.29,4.41 -18.74,7.58 -28.34,9.29 -9.6,1.79 -19.65,2.61 -30.09,2.53 -6.68,-0.09 -12.66,-2.19 -18.24,-6.32 -5.5,-4.27 -10.35,-9.85 -14.62,-16.92 -4.26,-7.07 -7.72,-15.29 -10.44,-24.58 -2.81,-9.37 -4.69,-19.14 -5.67,-29.41 -0.17,-2.64 -0.34,-5.92 -0.25,-9.85 0,-3.87 0.17,-7.92 0.48,-11.92 0.34,-4.21 0.76,-8.08 1.23,-11.84 0.5,-3.7 1.01,-6.9 1.57,-9.63 1.54,-7.55 4.01,-16.11 7.41,-25.79 3.34,-9.8 7.46,-19.73 12.37,-30 4.8,-10.27 10.39,-20.4 16.61,-30.34 6.26,-9.93 13,-18.89 20.15,-26.8 7.13,-7.89 14.79,-14.2 22.84,-18.97 8.23,-4.78 16.5,-7.07 24.98,-6.99 2.89,0 5.25,0.42 7.07,1.4 1.8,0.9 3.4,2.13 4.86,3.7 1.23,1.49 2.53,3.03 3.7,4.66 1.07,1.74 2.39,3.4 3.76,5.11 0.68,0.92 1.4,1.4 2.47,1.4 1.23,0 2.98,-0.34 4.86,-1.07 1.99,-0.76 4.18,-1.07 6.65,-1.07 3.2,0 7.24,2.3 12.35,6.82 4.94,4.69 10.16,9.68 15.6,15.13 5.5,5.5 10.86,10.53 16.19,15.04 5.42,4.52 10.11,6.79 13.98,6.9 4.52,0 9.34,-0.11 14.45,-0.28 5.11,-0.06 10.27,-0.4 15.6,-0.82 5.19,-0.42 10.44,-0.95 15.46,-1.66 5.19,-0.65 9.8,-1.46 14.06,-2.35 1.15,-0.4 3.85,-1.15 8.06,-2.47 4.18,-1.24 9.2,-2.64 14.79,-4.35 5.67,-1.74 11.59,-3.54 17.85,-5.5 6.31,-1.99 12.15,-3.88 17.48,-5.61 5.44,-1.71 9.88,-3 13.38,-4.1 3.57,-1.15 5.45,-1.66 5.76,-1.66 1.01,0 1.99,0.28 2.8,0.81 0.81,0.59 1.32,1.57 1.4,3.06z"/>
   <path class="fil0" d="M1882.06 355.23c0.28,5.25 -1.79,12.91 -5.64,20.21 -3.87,7.33 -9.54,14.12 -16.95,20.46 -7.38,6.26 -16.67,11.51 -27.7,15.71 -11,4.18 -23.66,6.15 -37.88,6.06 -14.45,-0.08 -27.28,-2.86 -38.53,-8.47 -11.28,-5.5 -20.8,-14.11 -28.77,-25.88 -7.97,-11.73 -14.2,-26.69 -18.72,-44.93 -4.52,-18.27 -7.16,-40.21 -8,-65.95 -2.56,1.82 -6.32,5.44 -11.25,10.86 -4.86,5.44 -10.27,11.84 -16.36,19.22 -6.01,7.41 -12.24,15.29 -18.72,23.77 -6.43,8.44 -12.6,16.67 -18.35,24.47 -5.75,7.8 -10.92,15.07 -15.35,21.64 -4.52,6.65 -7.83,11.81 -9.96,15.44 -3.68,6.56 -6.74,12.09 -8.87,16.53 -2.22,4.35 -4.35,7.97 -6.26,10.69 -2.05,2.61 -4.1,4.52 -6.4,5.59 -2.3,1.15 -5.27,1.63 -8.95,1.63 -3.45,-0.06 -6.59,-0.56 -9.54,-1.71 -2.86,-1.15 -5.42,-2.64 -7.72,-4.44 -2.13,-1.88 -3.76,-3.95 -5.11,-6.17 -1.23,-2.3 -1.97,-4.52 -1.97,-6.82 -0.17,-3.14 -0.17,-6.74 -0.08,-10.83 0.08,-4.13 0.25,-8.23 0.67,-12.6 0.31,-4.18 0.73,-8.45 1.12,-12.74 0.51,-4.18 0.84,-7.97 1.18,-11.34 1.07,-9.26 2.36,-20.29 3.7,-32.86 1.29,-12.66 2.11,-28.1 2.36,-46.45 0.28,-11.73 0.51,-22.84 0.68,-33.45 0.25,-10.5 0.08,-21.52 -0.51,-33.12 -0.25,-5.5 0.12,-10.83 0.99,-15.94 0.84,-5.27 2.47,-9.8 4.68,-13.72 2.25,-3.93 5.11,-7.16 8.56,-9.54 3.42,-2.36 7.63,-3.59 12.66,-3.54 3.67,0 6.74,0.59 9.04,1.74 2.44,1.15 4.35,2.61 5.75,4.52 1.4,1.88 2.38,3.96 2.86,6.23 0.51,2.3 0.81,4.68 0.99,7.15 0.11,2.72 0,5.53 -0.17,8.17 -0.22,2.61 -0.3,4.99 -0.22,6.96 0,0.59 -0.17,2.64 -0.48,6.23 -0.36,3.54 -0.92,8.16 -1.57,13.67 -0.68,5.42 -1.4,11.5 -2.39,18.24 -0.98,6.74 -1.91,13.47 -2.97,20.15 -2.22,13.89 -3.7,24.98 -4.57,33.37 -0.84,8.28 -1.35,15.52 -1.66,21.44 -0.34,5.92 -0.51,11.48 -0.51,16.59 0,5.16 -0.25,11.45 -0.73,18.66 3.28,-5.27 8.05,-11.92 14.23,-19.73 6.15,-7.8 12.54,-16.02 19.23,-24.5 6.74,-8.36 13.13,-16.59 19.39,-24.47 6.09,-8.05 10.94,-14.73 14.54,-20.15 4.68,-7.13 9.54,-13.73 14.37,-19.7 4.94,-6.04 10.04,-11.2 15.38,-15.46 5.27,-4.35 10.94,-7.83 17.01,-10.19 6.09,-2.47 12.6,-3.62 19.47,-3.57 4.88,0 7.92,1.35 9.32,3.98 1.38,2.53 2.13,5.64 2.19,9.26 0.11,1.49 0.11,2.95 0,4.52 -0.06,1.58 -0.06,3.14 0,4.52 0,1.4 -0.14,4.13 -0.53,7.83 -0.42,3.67 -0.84,7.72 -1.23,11.9 -0.42,4.29 -0.76,8.31 -1.09,12.09 -0.25,3.79 -0.42,6.4 -0.31,7.89 0.31,15.63 1.71,29.83 4.18,42.91 2.44,12.8 6.14,23.88 11,33.28 4.94,9.21 11.34,16.42 19.25,21.61 7.8,5.08 17.32,7.66 28.68,7.72 7.21,0.09 13.64,-0.31 19.23,-1.23 5.5,-0.98 10.83,-2.53 15.94,-4.75 5.02,-2.3 10.19,-5.11 15.38,-8.64 5.25,-3.45 11.09,-7.8 17.77,-13.08 1.63,-1.4 3.17,-2.64 4.83,-3.87 1.23,-0.87 2.69,-2.86 3.87,-2.69 2.69,0.48 5.5,6.82 5.55,9.62z"/>
   <path class="fil0" d="M2207.37 41.11c-0.08,1.74 -0.34,3.54 -0.73,5.28 -0.42,1.88 -1.18,4.1 -2.41,6.65 -1.23,2.64 -2.87,5.67 -5.08,9.46 -2.13,3.68 -4.94,8.36 -8.31,14.06 -1.4,0.89 -3.11,2.05 -5.16,3.34 -2.05,1.35 -4.21,2.47 -6.57,3.7 -2.33,1.07 -4.46,1.99 -6.68,2.72 -2.05,0.81 -3.88,1.15 -5.11,1.07 -7.69,0 -13.3,-3.79 -16.73,-11.17 0.53,-3.06 1.77,-6.48 3.59,-10.44 1.82,-3.88 3.79,-7.83 6.09,-11.82 2.22,-4.04 4.52,-7.74 7.04,-11.45 2.47,-3.62 4.8,-6.56 6.94,-8.87 5.83,-6.65 10.83,-10.02 15.29,-9.96 2.19,0 4.35,0.51 6.48,1.66 2.22,1.07 4.1,2.39 5.92,4.04 1.63,1.63 3.03,3.54 4.01,5.59 0.98,1.96 1.49,4.1 1.4,6.14zm67.16 281.82c-7.91,8.81 -16.19,17.51 -24.92,26.21 -8.78,8.64 -17.74,16.86 -26.88,24.67 -9.29,7.8 -18.38,14.7 -27.53,20.8 -9.21,6.01 -18.07,10.75 -26.77,14.23 -8.73,3.51 -16.95,5.25 -24.5,5.17 -7.58,-0.25 -13.56,-2.05 -18.02,-5.42 -4.52,-3.45 -7.94,-7.92 -10.41,-13.5 -2.47,-5.56 -4.13,-12.07 -4.77,-19.37 -0.73,-7.41 -0.89,-14.96 -0.73,-22.92 0.14,-3.88 0.73,-10.27 1.71,-19.31 0.98,-9.07 2.05,-18.61 3.23,-28.88 1.23,-10.27 2.27,-19.95 3.28,-29.16 1.07,-9.15 1.63,-15.77 1.71,-19.73 0.09,-3.45 0.09,-6.17 -0.09,-8.14 -0.25,-2.05 -0.5,-4.04 -0.73,-6.01 -10.35,1.91 -21.86,3.85 -34.35,6.01 -12.6,2.05 -25.23,4.01 -38,5.84 -12.8,1.79 -25.48,3.37 -37.8,4.6 -12.38,1.23 -23.66,2.13 -33.84,2.53 0,4.21 -0.09,9.4 -0.25,15.46 -0.17,6.18 -0.39,12.74 -0.65,19.98 -0.34,7.16 -0.68,14.54 -0.99,22.34 -0.34,7.74 -0.58,15.29 -1.01,22.62 -1.23,25.57 -1.58,185.98 -3.2,208.57 -1.79,22.37 -40.61,31.15 -40.1,27.11 3.11,-30.64 5.42,-172.51 6.48,-205.59 1.09,-33.62 1.82,-69.46 2.16,-107.68 -5.05,0.51 -8.47,0.84 -10.39,1.07 -2.05,0.34 -3.7,0.42 -5.25,0.42 -1.4,0 -3.28,-0.09 -5.58,-0.17 -2.3,-0.17 -6.09,-0.25 -11.59,-0.25 -2.38,0 -5.16,-0.34 -8.14,-0.81 -3.06,-0.59 -5.92,-1.57 -8.53,-2.8 -2.64,-1.3 -4.8,-2.95 -6.59,-5.08 -1.63,-2.13 -2.56,-4.69 -2.56,-7.72 -0.06,-3.45 0.34,-6.43 1.18,-8.73 0.73,-2.38 2.36,-4.27 4.75,-5.67 2.41,-1.49 5.7,-2.44 9.71,-3.14 4.21,-0.65 9.54,-0.9 16.11,-0.82 4.6,0 9.21,-0.08 13.72,-0.14 4.52,-0.17 9.13,-0.68 13.72,-1.57 0.17,-8.06 0.51,-16.61 1.07,-25.57 0.48,-8.95 1.32,-18.25 2.39,-27.7 0.98,-9.63 2.22,-19.23 3.7,-28.93 1.38,-9.68 3.37,-19.23 5.75,-28.59 4.52,-17.94 9.94,-33.43 16.5,-46.76 6.59,-13.3 13.72,-24.25 21.47,-32.94 7.72,-8.73 15.68,-15.21 24.08,-19.51 8.31,-4.27 16.53,-6.32 24.5,-6.23 14.2,0.08 25.23,4.43 33.03,13.05 7.72,8.73 11.42,22.28 10.92,40.86 0,2.72 -0.48,6.59 -1.23,11.51 -0.81,5.08 -1.97,9.93 -3.62,14.45 -1.54,4.68 -3.11,7.8 -4.57,9.46 -1.49,1.57 -2.89,2.3 -4.21,2.3 -1.54,0 -3.28,-4.35 -5.25,-13.05 -1.06,-4.52 -2.3,-8.73 -3.7,-12.6 -1.32,-3.76 -2.97,-7.13 -4.77,-10.02 -1.96,-2.78 -4.18,-5.08 -6.82,-6.74 -2.64,-1.63 -5.92,-2.56 -9.51,-2.56 -10.05,-0.06 -18.67,3.62 -26.16,11.09 -7.41,7.49 -13.64,18.36 -18.58,32.55 -5.08,14.23 -8.87,31.74 -11.42,52.45 -2.64,20.54 -4.1,44.14 -4.35,70.53 5.67,-0.17 11.84,-0.51 18.49,-0.82 6.65,-0.42 13.56,-1.01 20.63,-1.57 7.07,-0.59 14.23,-1.32 21.27,-2.3 7.07,-0.92 13.83,-2.16 20.4,-3.54 16.02,-3.14 30.56,-6.85 43.56,-10.94 13.08,-4.1 25.79,-9.04 38.22,-14.87 2.3,-1.07 4.26,-2.05 5.75,-2.98 1.54,-0.98 3.42,-1.38 5.75,-1.38 3.11,0.09 5.89,2.22 8.11,6.57 2.22,4.38 3.23,10.94 2.89,19.73 -0.42,11 -1.23,22.11 -2.64,33.45 -1.37,11.34 -2.77,22.53 -4.26,33.71 -1.4,11.09 -2.81,22 -4.21,32.86 -1.2,10.78 -2.1,21.04 -2.44,30.9 -0.09,3.11 0,6.35 0.39,9.54 0.42,3.11 1.07,6.06 1.99,8.7 0.99,2.64 2.3,4.69 3.93,6.35 1.66,1.57 3.7,2.38 6.25,2.38 5.84,0.09 12.35,-1.66 19.48,-5.11 7.13,-3.45 14.45,-7.97 21.86,-13.56 7.54,-5.58 15.01,-11.84 22.59,-18.75 7.49,-6.99 14.54,-13.8 21.38,-20.6 6.71,-6.85 12.74,-13.25 18.07,-19.33 5.36,-6.01 25.48,-26.22 30.17,-24.84 10.58,3.28 -12.6,45.46 -20.46,54.33z"/>
   <path class="fil0" d="M2388.69 223.89c-5.19,23.83 -16.3,71.43 -19.65,95.64 -3.28,23.61 -7.91,91.66 -8.13,95 -0.34,5.53 -2.72,11.37 -7.24,17.59 -4.35,6.25 -8.95,9.4 -13.9,9.29 -5.16,0 -10.35,-4.27 -15.37,-12.8 -2.47,-4.29 0.65,-71.7 3.28,-95.42 1.91,-18.1 7.83,-54.02 11.61,-71.67 8.87,-41.08 39.6,-156.82 41.17,-162.82 1.63,-6.06 3.03,-11.25 4.1,-15.52 0.42,-1.15 1.4,-5.25 2.97,-12.4 1.15,-3.79 2.05,-7.33 2.87,-10.61 0.76,-3.28 1.4,-6.23 1.88,-8.87 1.57,-7.24 3.28,-13.92 5.11,-19.9 1.82,-6.17 3.76,-11.59 5.98,-16.53 4.29,-9.93 10.63,-14.96 18.83,-14.88 12.52,0.17 18.18,8.06 17.09,23.66 -0.73,9.79 -3.28,20.88 -7.8,33.31 -19.56,56.69 -33.62,124.83 -42.8,166.92z"/>
   <path class="fil0" d="M2828.99 58.6c19.56,-3.06 36.06,-4.21 49.45,-3.62 21.42,0.98 27.98,7.89 19.59,20.63 -5.59,8.53 -16.45,14.28 -32.56,17.43 -8.05,1.54 -16.67,2.89 -26.04,3.93 -9.2,1.07 -19.25,1.99 -29.83,2.64 -3.87,0.17 -8.23,0.42 -13.16,0.84 -4.94,0.39 -10.27,0.87 -15.94,1.46 -10.52,0.76 -16.76,1.23 -18.41,1.49 -6.57,0.56 -14.31,1.21 -23.52,2.13 -9.04,0.84 -471.72,17.26 -475.68,14.23 -7.8,-6.34 -9.94,-12.18 -6.4,-17.59 3.28,-5.02 10.58,-9.37 21.86,-12.99 11.31,-3.79 20.88,-5.5 28.26,-5.08 4.68,0.17 433.87,-12.85 522.38,-25.48z"/>
   <path class="fil0" d="M2723.74 369.8c-11.08,8.78 -21.83,15.69 -32.1,20.71 -10.27,5.08 -19.65,7.64 -28.12,7.55 -18.58,-0.08 -32.14,-7.89 -40.86,-23.26 -8.87,-15.52 -11.82,-38.45 -9.18,-69.04l-2.97 -1.37c-1.82,1.79 -4.86,5.42 -9.04,10.91 -4.29,5.53 -9.37,11.76 -15.21,18.92 -5.84,7.16 -12.26,14.62 -19.23,22.28 -6.99,7.69 -14.14,14.62 -21.38,20.93 -4.35,3.62 -9.6,7.97 -15.77,13.08 -6.35,5.08 -13.13,10.02 -20.71,14.79 -7.54,4.69 -15.77,8.82 -24.58,12.32 -8.78,3.48 -17.9,5.42 -27.33,5.92 -11.28,-0.09 -20.01,-2.44 -26.24,-7.25 -6.09,-4.65 -10.49,-10.69 -13.3,-18.07 -2.72,-7.3 -4.13,-15.44 -4.29,-24.3 -0.17,-9.04 0.17,-17.68 0.76,-26.16 0.06,-1.07 0.48,-3.7 1.23,-7.97 0.65,-4.18 1.63,-9.54 2.7,-16.11 1.23,-6.51 2.64,-13.72 4.46,-21.69 1.63,-8.05 3.7,-16.28 5.89,-24.67 2.33,-8.36 4.77,-16.58 7.49,-24.89 2.69,-8.23 5.81,-15.8 9.2,-22.68 1.82,-3.79 3.45,-7.41 4.99,-10.69 1.49,-3.28 3.06,-6.09 4.69,-8.31 1.57,-2.3 3.37,-4.1 5.27,-5.5 1.88,-1.4 4.18,-2.07 6.82,-2.3 3.28,0 5.97,0.76 8.13,2.3 2.05,1.49 3.7,3.37 4.77,5.67 1.07,2.3 1.8,4.77 2.11,7.58 0.34,2.69 0.34,5.5 0.17,8.19 -0.22,2.72 -1.88,8.17 -4.83,16.11 -2.89,7.97 -6.18,17.68 -9.8,29.02 -3.62,11.34 -7.13,23.94 -10.61,37.72 -3.34,13.81 -5.67,28.04 -6.96,42.74 -0.25,2.81 -0.34,6.09 -0.19,9.85 0.19,3.79 0.84,7.41 1.91,10.78 1.15,3.45 2.98,6.4 5.19,8.82 2.22,2.3 5.33,3.51 9.34,3.51 5.61,-0.34 11.25,-1.57 17.18,-3.62 6.01,-2.18 12.09,-4.99 18.07,-8.36 6.04,-3.36 11.84,-7.15 17.59,-11.42 5.76,-4.26 11.03,-8.61 15.8,-13.25 5.16,-4.68 10.66,-10.16 16.53,-16.45 5.98,-6.23 11.73,-12.79 17.48,-19.64 5.76,-6.79 11.09,-13.61 16.28,-20.37 5.08,-6.74 9.43,-13.05 12.99,-18.8 1.71,-3.06 4.27,-7.58 7.64,-13.5 3.28,-5.97 6.74,-12.23 10.22,-18.97 3.34,-6.68 6.62,-13.08 9.42,-19.05 2.89,-6.01 4.83,-10.61 5.84,-13.72 0.99,-2.72 1.8,-5.28 2.47,-7.66 0.65,-2.39 1.41,-4.77 2.13,-6.96 0.73,-2.41 1.54,-4.88 2.56,-7.41 0.98,-2.56 2.05,-5.5 3.45,-8.78 0.65,-1.35 1.71,-2.75 3.37,-4.38 1.57,-1.54 3.45,-2.95 5.5,-4.26 2.22,-1.23 4.35,-2.33 6.56,-3.14 2.22,-0.81 4.35,-1.23 6.4,-1.12 4.55,0 7.92,1.63 9.96,4.75 2,3.23 2.89,7.07 2.72,11.67 -0.08,0.25 -0.67,2.39 -1.91,6.35 -1.2,4.1 -2.8,9.46 -4.68,16.02 -1.96,6.65 -4.01,14.14 -6.15,22.51 -2.3,8.39 -4.46,17.03 -6.56,25.82 -2.25,8.7 -4.13,17.35 -5.84,25.71 -1.66,8.31 -2.89,15.8 -3.7,22.37 -2.13,18.89 -0.9,33.45 3.54,43.64 4.6,10.19 11.5,15.27 20.8,15.38 8.03,0.06 16.75,-2.47 26.21,-7.58 9.37,-5.17 31.63,-18.58 41.65,-27.02 9.96,-8.39 -4.75,37.07 -15.94,45.85z"/>
   <path class="fil0" d="M3010.67 205.46c-0.48,2.72 -1.88,5.02 -4.52,6.9 -2.47,1.91 -5.64,3.62 -9.43,5.19 -3.87,1.66 -8.14,3.11 -12.82,4.43 -4.69,1.32 -9.29,2.72 -13.98,4.35 -11.11,3.54 -22.68,8.53 -34.94,15.21 -12.07,6.66 -25.11,16.67 -39.01,29.92 -11.03,10.44 -20.54,21.27 -28.93,32.63 -8.39,11.25 -15.8,23.24 -22.45,35.73 -6.65,12.57 -12.57,25.73 -17.9,39.71 -5.36,13.8 -10.27,28.43 -14.9,43.97 -1.97,2.05 -3.76,3.85 -5.17,5.33 -1.48,1.57 -3.06,2.8 -4.6,3.87 -1.58,0.98 -3.29,1.71 -5.28,2.3 -1.79,0.56 -4.15,0.9 -6.96,0.9 -4.13,0 -7.07,-1.97 -8.81,-5.84 -1.8,-3.76 -2.86,-8.39 -3.28,-13.56 -0.42,-5.28 -0.31,-10.53 0.17,-15.8 0.48,-5.33 0.98,-9.52 1.4,-12.66 0.31,-3.17 0.98,-7.38 1.88,-12.57 0.9,-4.99 1.82,-10.66 2.89,-16.67 1.07,-6.09 2.22,-12.4 3.45,-18.92 1.23,-6.56 2.3,-12.88 3.34,-19.05 1.18,-6.09 2.16,-11.84 2.97,-17.01 0.9,-5.19 1.57,-9.46 2.08,-12.83 1.07,-8.13 1.88,-14.87 2.36,-20.23 0.5,-5.42 0.81,-9.93 0.98,-13.72 0.25,-3.68 0.25,-7.07 0.17,-10.02 -0.06,-2.97 0,-6.15 0.17,-9.71 0.17,-3.51 0.42,-7.63 0.73,-12.38 0.42,-4.77 1.18,-10.94 2.22,-18.61 0.59,-3.87 1.77,-7.55 3.7,-11 2,-3.54 4.3,-6.65 7.1,-9.21 2.69,-2.72 5.64,-4.77 8.87,-6.26 3.29,-1.54 6.32,-2.27 9.26,-2.27 3.45,0.06 6.51,0.81 9.32,2.53 2.69,1.63 4.83,3.79 6.65,6.34 1.71,2.56 2.95,5.59 3.68,8.87 0.59,3.45 0.67,6.82 0.25,10.27 -0.98,6.9 -2.64,15.04 -4.77,24.5 -2.13,9.43 -4.35,19.06 -6.65,28.74 -2.22,9.8 -4.35,19.08 -6.25,28.04 -1.97,8.98 -3.2,16.36 -3.93,22.37 8.95,-14.48 19.08,-29.02 30.39,-43.89 11.34,-15.01 23.52,-28.6 36.57,-40.83 13.19,-12.26 26.97,-22.37 41.37,-30.08 14.48,-7.8 29.27,-11.68 44.23,-11.59 2.95,0 6.23,0.42 9.85,1.15 3.59,0.81 6.87,2.05 9.93,3.93 2.98,1.82 5.28,4.21 6.99,7.07 1.79,2.81 2.3,6.26 1.63,10.44z"/>
   <path class="fil0" d="M3136.14 224.59c0.42,-1.96 0.25,-3.76 -0.42,-5.5 -0.73,-1.66 -1.57,-3.03 -2.81,-4.18 -1.2,-1.07 -2.44,-2 -3.93,-2.64 -1.4,-0.65 -2.72,-0.98 -3.87,-0.98 -7.21,-0.08 -15.01,2.78 -23.66,8.53 -8.56,5.7 -17.01,13.67 -25.32,23.77 -8.31,10.19 -16.11,22.17 -23.51,36.09 -7.24,13.78 -13.16,28.74 -17.68,44.76 2.58,-1.54 5.92,-3.87 10.22,-6.87 4.18,-2.98 8.78,-6.35 13.72,-9.96 4.94,-3.7 9.85,-7.33 14.79,-11.09 5.02,-3.7 9.37,-7.15 13.39,-10.35 8.78,-7.02 16.11,-13.25 21.94,-18.75 5.84,-5.42 10.69,-10.52 14.4,-15.13 3.7,-4.6 6.48,-9.12 8.36,-13.56 2.05,-4.52 3.45,-9.21 4.38,-14.14zm90.48 116.16c-1.23,6.15 -4.69,12.88 -10.27,20.12 -5.67,7.16 -13.13,15.21 -22.59,24.08 -10.78,10.02 -22.2,19.39 -34.38,27.87 -12.07,8.56 -24.39,15.85 -36.65,22.11 -12.23,6.23 -24.41,11 -36.48,14.62 -12.1,3.51 -23.43,5.25 -33.93,5.16 -24.83,-0.14 -42.6,-8.95 -53.18,-26.47 -10.78,-17.56 -13.25,-43.47 -7.55,-77.74 1.88,-10.94 4.66,-22.2 8.36,-33.7 3.7,-11.51 8.22,-22.85 13.64,-34.18 5.44,-11.34 11.67,-22.37 18.74,-33.06 7.13,-10.66 15.13,-20.71 23.66,-29.97 5.53,-5.7 11.34,-11.45 17.84,-17.26 6.4,-5.84 13.33,-11.09 20.8,-15.77 7.38,-4.69 15.3,-8.47 23.57,-11.45 8.39,-2.86 17.18,-4.26 26.47,-4.18 6.51,0 12.18,1.54 16.95,4.44 4.69,2.98 8.39,6.68 11.14,11.09 2.75,4.46 4.63,9.46 5.45,15.07 0.84,5.5 0.73,10.92 -0.23,16.25 -2.24,11.2 -6.99,22.42 -14.56,33.79 -7.49,11.25 -17.18,22.59 -29.02,33.93 -11.84,11.37 -25.54,22.71 -41.17,33.87 -15.63,11.25 -32.64,22.34 -51.13,33.37 -2.47,1.4 -4.99,2.95 -7.54,4.6 -2.56,1.65 -4.01,3.7 -4.44,6.17 -0.92,5.25 -1.23,10.83 -0.98,16.58 0.3,5.84 1.71,11.11 4.18,15.94 2.55,4.86 6.31,8.78 11.42,12.02 5.11,3.11 12.01,4.77 20.8,4.83 11.08,0.11 22.84,-1.77 35.02,-5.64 12.32,-3.87 24.64,-9.2 37.07,-16.14 12.38,-6.99 24.73,-15.18 37.13,-24.72 12.32,-9.6 24.25,-20.04 35.59,-31.32 6.32,-6.15 11.11,-9.26 14.14,-9.26 1.79,0 2.86,1.23 3.2,3.51 0.34,2.3 -0.08,6.17 -1.06,11.45z"/>
   <path class="fil0" d="M2175.83 2047.95c-9.6,-12.6 -14.45,-28.37 -14.45,-47.12 0,-22.25 4.32,-43.3 12.97,-63.11 15.38,-31.71 28.85,-47.74 40.52,-48.24 11.59,-0.48 17.74,-0.73 18.49,-0.73 25.31,0 47.09,18.58 65.76,55.65 5.64,10.91 11.51,20.77 17.43,29.75 5.89,8.87 12.07,13.3 18.49,13.3l0 36.73 -1.82 0c-18.33,0 -33.12,-7.33 -44.54,-21.86 -6.43,-9.21 -11.84,-19.22 -16.28,-30.08 -3.45,-8.36 -7.46,-16.36 -11.92,-23.74 -9.63,-14.9 -18.16,-22.28 -25.54,-22.28l-2.97 0.34c-7.72,2.53 -13.39,10.19 -17.09,23.09 -2.56,8.87 -3.7,18.16 -3.7,27.79 0,17.82 3.48,31.32 10.35,40.41 1.99,2.97 2.98,6.01 2.98,8.98 0,3.7 -1.66,7.46 -4.86,11.51 -8.14,10.33 -18.07,15.55 -29.69,15.55 -5.47,0 -10.1,-1.99 -14.11,-5.92z"/>
   <polygon class="fil0" points="2332.45,1987.45 2386.62,1987.45 2386.62,2024.18 2332.45,2024.18 "/>
   <polygon class="fil0" points="2383.67,1987.45 2437.83,1987.45 2437.83,2024.18 2383.67,2024.18 "/>
   <polygon class="fil0" points="2434.89,1987.45 2489.02,1987.45 2489.02,2024.18 2434.89,2024.18 "/>
   <path class="fil0" d="M2488.35 2024.18c-1.46,-4.94 -2.22,-9.54 -2.22,-13.72l0 -7.41c0,-6.23 0.76,-11.42 2.22,-15.6l1.15 0c24.67,-0.76 40.05,-6.09 45.94,-15.94 6.01,-9.93 8.96,-19.81 8.96,-29.69 0,-5.75 -0.73,-11.65 -2.22,-17.82 -3.76,-17.57 -9.93,-35.11 -18.55,-52.68 -8.73,-17.59 -16.45,-32.3 -23.35,-44.23 -1.83,-3.45 -2.64,-6.9 -2.64,-10.35 0,-3.93 1.07,-7.8 3.29,-11.51 6.01,-9.68 13.08,-14.45 21.21,-14.45 9.88,0 24.5,24.72 43.73,74.22 9.77,25.23 14.96,44.46 15.86,57.5 0.81,13.08 1.23,20.88 1.23,23.35 0,50.96 -31.07,77.09 -93.12,78.32l-1.49 0z"/>
   <path class="fil0" d="M2600.8 2037.18c-3.45,-3.45 -5.28,-7.8 -5.5,-12.97 0.22,-5.19 1.99,-9.54 5.33,-12.99 3.28,-3.45 7.58,-5.33 12.74,-5.61 14.14,0 26.55,-1.04 37.16,-3.28 3.68,-16.33 5.59,-31.54 5.59,-45.69 0,-26.47 -8.53,-57.03 -25.62,-91.63 -1.23,-3.2 -1.82,-6.31 -1.82,-9.29 0,-4.18 1.15,-8.05 3.28,-11.5 4.29,-6.48 8.22,-10.02 12.1,-10.75 3.76,-0.76 6.23,-1.18 7.21,-1.18 4.94,0 8.98,2.89 11.93,8.56 16.53,21.3 26.13,40.61 28.68,57.86 2.69,17.35 3.93,31.55 3.93,42.71 0,14.09 -1.29,28.62 -4.1,43.42 17.82,-15.55 26.8,-36.48 26.8,-62.72 0,-26.94 -3.23,-56.13 -9.71,-87.53 -2.22,-10.92 -3.36,-17.57 -3.36,-20.04 0,-7.24 3.62,-13.58 10.78,-19 7.97,-6.15 14.28,-9.43 19.14,-9.85 4.77,-0.34 7.58,-0.5 8.28,-0.5 7.52,0 12.1,3.45 13.75,10.35 5.25,30.75 7.8,57.7 7.8,80.88 0,23.57 -1.38,48.16 -4.01,73.89l-0.42 8.14c0,10.66 2.3,18.46 6.65,23.4 3.23,3.71 9.15,5.61 17.51,5.61l0 36.73c-12.66,0 -23.15,-2.05 -31.65,-6.09 -8.28,-4.13 -15.6,-11.11 -21.78,-21.02 -24.21,29.49 -63.53,44.71 -117.67,45.66 -5.19,-0.25 -9.54,-2.13 -12.99,-5.59z"/>
   <path class="fil0" d="M2896.65 1993.37c13.08,-13.08 19.64,-33.31 19.64,-60.48 0,-6.17 -0.59,-11.84 -1.48,-17.04 -2.08,-10.66 -4.55,-16.11 -7.66,-16.19 -3.03,-0.08 -4.75,-0.17 -4.99,-0.17 -8.14,0 -19.9,13.98 -35.25,41.93l-9.96 18.97c0.92,6.68 3.2,13.98 6.68,21.89 3.45,7.89 6.96,12.97 10.58,15.21 3.54,2.22 6.32,3.34 8.31,3.34 4.18,0 8.98,-2.47 14.14,-7.46zm-24.92 43.78c-17.32,-4.16 -29.89,-16.89 -37.86,-38.2 -6.17,8.14 -12.85,14.37 -20.07,18.72 -7.15,4.38 -15.97,6.51 -26.29,6.51l-3.4 0c-1.94,-4.69 -2.94,-10.78 -2.94,-18.18 0,-7.21 1.01,-13.39 2.94,-18.55l1.91 0c9.85,0 21.53,-10.36 34.83,-31.15 6.43,-10.44 12.35,-20.55 17.54,-30.51 6.87,-13.3 15.1,-26.94 24.47,-40.75 13.08,-18.1 27.22,-27.14 42.32,-27.14 16.05,0 28.93,11.51 38.56,34.54 6.01,16.08 8.95,32.27 8.95,48.64 0,30.9 -9.93,57.05 -29.75,78.24 -13.38,12.91 -26.71,19.34 -40.02,19.34 -3.79,0 -7.49,-0.5 -11.2,-1.51z"/>
   <path class="fil0" d="M3076.59 2104.33c-18.07,-11.9 -29.69,-25.93 -35.11,-42.29 -5.25,-16.36 -7.89,-32.38 -7.89,-48.24 0,-5.19 0.17,-10.52 0.65,-15.97 2.07,-21.75 6.26,-43.3 12.66,-64.57 2.72,-7.66 9.15,-11.59 19.31,-11.93 9.88,0 18.92,2.39 26.89,7.05 8.08,4.8 12.09,10.3 12.09,16.78 0,1.65 -2.78,11.03 -8.22,27.78 -7.16,20.54 -11.42,36.18 -12.74,46.78 -1.4,10.66 -2.05,17.26 -2.05,19.62 0,15.13 5.42,27.56 16.36,37.16 13.56,9.21 29.75,13.72 48.58,13.72 23.07,0 43.22,-4.94 60.48,-14.79 12.15,-7.41 18.15,-14.7 18.15,-21.94l-0.25 -2.22c-1.58,-7.66 -6.82,-14.06 -15.86,-19.34 -9.04,-5.16 -17.68,-7.8 -25.73,-7.8 -10.19,0 -16.19,-1.94 -17.9,-6.06 -1.74,-4.1 -2.56,-7.24 -2.56,-9.46 0,-3.7 1.49,-7.54 4.44,-11.5 4.68,-5.89 12.91,-9.21 24.5,-9.6l83.18 0 0 36.62 -23.77 0c8.62,10.94 13,21.47 13,31.65 0,3.45 -0.51,6.74 -1.58,9.94 -3.45,13.16 -12.07,25.17 -25.87,36 -21.36,15.38 -47.35,23.1 -78.02,23.1 -32.44,0 -59.97,-6.82 -82.73,-20.49z"/>
   <polygon class="fil0" points="3272.59,1987.45 3326.75,1987.45 3326.75,2024.18 3272.59,2024.18 "/>
   <polygon class="fil0" points="3323.78,1987.45 3377.94,1987.45 3377.94,2024.18 3323.78,2024.18 "/>
   <polygon class="fil0" points="3374.99,1987.45 3429.16,1987.45 3429.16,2024.18 3374.99,2024.18 "/>
   <path class="fil0" d="M3447.37 2098.05c-14.37,-2.22 -21.61,-10.27 -21.61,-24.05 0,-3.79 0.73,-7.24 2.3,-10.47 3.23,-6.48 9.29,-9.68 18.18,-9.68l1.12 0c17.26,2.56 25.9,10.86 25.9,24.9 0,3.45 -0.9,6.99 -2.97,10.44 -3.2,5.92 -9.77,8.87 -19.65,8.87l-3.28 0zm-19.73 -73.86c-1.21,-3.96 -1.88,-8.98 -1.88,-15.21 0,-9.12 0.73,-16.36 2.3,-21.52 9.12,0 19.08,-1.4 29.83,-4.29 10.78,-2.78 18.58,-6.63 23.6,-11.51 4.94,-4.86 9.29,-25.29 9.68,-29.97 2.39,-27.06 38.39,-21.95 36.9,-0.68 -0.5,7.66 -4.68,30.17 -8.36,36.82 -8.22,14.06 -20.88,25.31 -38.22,33.79 -17.34,8.39 -34.69,12.57 -52.03,12.57l-1.82 0z"/>
   <path class="fil0" d="M3525.64 2114.77c-10.13,-1.99 -16.14,-6.45 -18.02,-13.25 -1.8,-6.76 -2.81,-11.51 -2.81,-14.23 0,-8.19 3.48,-16.58 10.44,-25.23 8.47,-9.71 16.02,-18.25 22.95,-25.62 14.12,-14.31 25.88,-28.62 35.34,-42.91 9.37,-14.14 18.15,-35.02 26.32,-62.47 2.75,-7.75 6.06,-11.84 9.73,-12.49 3.88,-0.59 6.51,-0.9 7.66,-0.9 5.02,0 9.37,1.71 13,4.99 3.7,3.37 5.67,7.49 5.67,12.43 0,2.95 -2.33,11.73 -6.73,26.35 0.98,6.43 2.86,12.43 5.75,17.85 2.78,5.44 7.97,8.14 15.44,8.14l0.25 36.73c-17.04,0 -29.75,-4.6 -38.14,-13.72 -10.86,27.7 -28.17,56.04 -51.95,84.98 -11.17,13.16 -21.44,19.65 -30.81,19.65 -1.48,0 -2.86,-0.09 -4.1,-0.31z"/>
   <path class="fil0" d="M3762.08 1993.37c13.05,-13.08 19.64,-33.31 19.64,-60.48 0,-6.17 -0.5,-11.84 -1.49,-17.04 -1.96,-10.66 -4.52,-16.11 -7.63,-16.19 -3.06,-0.08 -4.77,-0.17 -5.02,-0.17 -8.13,0 -19.87,13.98 -35.16,41.93l-10.04 18.97c0.92,6.68 3.23,13.98 6.68,21.89 3.42,7.89 6.99,12.97 10.58,15.21 3.62,2.22 6.34,3.34 8.33,3.34 4.16,0 8.93,-2.47 14.12,-7.46zm-24.92 43.78c-17.32,-4.16 -29.92,-16.89 -37.86,-38.2 -6.18,8.14 -12.83,14.37 -19.98,18.72 -7.24,4.38 -15.97,6.51 -26.38,6.51l-3.29 0c-2.07,-4.69 -2.97,-10.78 -2.97,-18.18 0,-7.21 0.9,-13.39 2.97,-18.55l1.8 0c9.85,0 21.53,-10.36 34.94,-31.15 6.4,-10.44 12.23,-20.55 17.43,-30.51 6.87,-13.3 15.1,-26.94 24.47,-40.75 13.08,-18.1 27.22,-27.14 42.32,-27.14 16.14,0 28.93,11.51 38.56,34.54 6.01,16.08 8.95,32.27 8.95,48.64 0,30.9 -9.85,57.05 -29.75,78.24 -13.3,12.91 -26.69,19.34 -40.02,19.34 -3.79,0 -7.49,-0.5 -11.2,-1.51z"/>
   <path class="fil0" d="M2939.02 2092.71c6.32,-0.89 10.33,-3.28 12.15,-7.15 1.23,-2.61 1.74,-5.16 1.32,-7.63 -0.99,-7.47 -6.09,-10.92 -15.3,-10.61l-101.34 9.37c-6.32,0.82 -10.19,3.71 -11.68,8.45 -0.81,2.47 -0.98,4.94 -0.65,7.33 0.31,2.47 1.15,4.94 2.64,7.32 2.78,4.77 7.72,7.16 14.54,7.07l98.3 -14.14z"/>
   <path class="fil0" d="M2245.96 1857.91c-14.28,-2.22 -21.52,-10.27 -21.52,-24.05 0,-3.7 0.76,-7.24 2.3,-10.44 3.2,-6.4 9.2,-9.63 18.18,-9.63l1.04 0c17.37,2.47 25.99,10.78 25.99,24.81 0,3.45 -0.92,6.99 -2.97,10.44 -3.18,5.92 -9.77,8.87 -19.65,8.87l-3.37 0z"/>
   <path class="fil0" d="M2191.88 1857.91c-16.36,-2.53 -24.56,-11.73 -24.56,-27.5 0,-4.29 0.81,-8.22 2.44,-11.84 3.7,-7.41 10.58,-11.11 20.8,-11.11l1.32 0c19.73,2.8 29.67,12.32 29.67,28.46 0,3.93 -1.07,7.89 -3.37,11.84 -3.68,6.82 -11.2,10.16 -22.45,10.16l-3.85 0z"/>
  </g>
 </g>
</svg>
