<?xml version="1.0" encoding="UTF-8"?>
<!DOCTYPE svg PUBLIC "-//W3C//DTD SVG 1.1//EN" "http://www.w3.org/Graphics/SVG/1.1/DTD/svg11.dtd">
<!-- Creator: CorelDRAW -->
<svg xmlns="http://www.w3.org/2000/svg" xml:space="preserve" width="12.3821mm" height="26.5278mm" version="1.1" style="shape-rendering:geometricPrecision; text-rendering:geometricPrecision; image-rendering:optimizeQuality; fill-rule:evenodd; clip-rule:evenodd"
viewBox="0 0 199.61 427.65"
 xmlns:xlink="http://www.w3.org/1999/xlink"
 xmlns:xodm="http://www.corel.com/coreldraw/odm/2003">
 <defs>
  <style type="text/css">
   <![CDATA[
    .fil0 {fill:#68486B;fill-rule:nonzero}
    .fil1 {fill:#FEFEFE;fill-rule:nonzero}
   ]]>
  </style>
 </defs>
 <g id="Plan_x0020_1_0">
  <metadata id="CorelCorpID_0Corel-Layer"/>
  <g id="_2014059932304">
   <path class="fil0" d="M155.55 0c24.34,0 44.06,19.73 44.06,44.09l0 383.56 -99.55 -48.49 -100.06 48.49 0 -383.56c0,-24.34 19.73,-44.09 44.06,-44.09l111.48 0 0 0zm-17.48 327.35l-76.52 0c-0.98,0 -1.76,-0.8 -1.76,-1.76 0,-0.96 0.8,-1.76 1.76,-1.76l76.52 0c0.98,0 1.76,0.8 1.76,1.76 0,0.98 -0.8,1.76 -1.76,1.76zm6.67 -126.18c-0.37,0.28 -0.82,0.8 -1.33,1.52 -0.4,0.51 -0.68,0.8 -0.89,0.8 -0.07,0 -0.14,-0.02 -0.19,-0.09 -0.07,-0.05 -0.09,-0.14 -0.09,-0.26l0 -13.67c0,-0.14 0.02,-0.23 0.09,-0.3 0.07,-0.07 0.14,-0.09 0.26,-0.09 0.12,0 0.21,0.05 0.26,0.12 0.05,0.07 0.09,0.4 0.14,0.94 0.26,3.77 0.89,6.9 1.92,9.43 0.73,1.82 1.62,2.74 2.62,2.74 0.51,0 0.96,-0.26 1.36,-0.75 0.42,-0.49 0.63,-1.22 0.63,-2.13 0,-1.08 -0.23,-2.39 -0.7,-3.93 -0.44,-1.54 -1.43,-3.93 -2.88,-7.18 -1.48,-3.23 -2.41,-5.57 -2.83,-7.02 -0.42,-1.43 -0.63,-2.69 -0.63,-3.79 0,-1.8 0.49,-3.23 1.48,-4.35 0.98,-1.12 2.13,-1.66 3.44,-1.66 1.15,0 2.29,0.54 3.39,1.62 0.28,-0.19 0.73,-0.59 1.31,-1.15 0.33,-0.3 0.56,-0.44 0.68,-0.44 0.07,0 0.16,0.02 0.21,0.07 0.07,0.07 0.09,0.16 0.09,0.26l0 12.31c0,0.14 -0.05,0.26 -0.12,0.33 -0.07,0.09 -0.16,0.12 -0.26,0.12 -0.12,0 -0.21,-0.05 -0.28,-0.14 -0.05,-0.09 -0.09,-0.4 -0.14,-0.87 -0.26,-3.58 -0.8,-6.5 -1.64,-8.73 -0.59,-1.54 -1.38,-2.34 -2.36,-2.34 -0.54,0 -1.01,0.21 -1.36,0.61 -0.37,0.4 -0.56,0.96 -0.56,1.66 0,1.78 1.17,4.96 3.49,9.6 1.54,3.07 2.6,5.52 3.18,7.35 0.56,1.82 0.84,3.44 0.84,4.84 0,2.13 -0.54,3.81 -1.64,5.05 -1.1,1.26 -2.36,1.9 -3.79,1.9 -0.73,0 -1.38,-0.16 -1.94,-0.51 -0.54,-0.35 -1.12,-0.94 -1.73,-1.78l-0.03 -0.05zm-16.59 -28.62l-1.24 0c-0.12,0 -0.21,-0.02 -0.28,-0.09 -0.07,-0.07 -0.09,-0.16 -0.09,-0.26 0,-0.12 0.02,-0.21 0.09,-0.26 0.07,-0.07 0.16,-0.09 0.28,-0.09l6.36 0 0 3.86c0.65,-1.76 1.26,-2.9 1.85,-3.42 0.56,-0.51 1.17,-0.8 1.82,-0.8 0.87,0 1.66,0.44 2.36,1.31 0.89,1.12 1.33,2.55 1.33,4.26 0,1.45 -0.3,2.57 -0.91,3.32 -0.59,0.75 -1.24,1.12 -1.97,1.12 -0.59,0 -1.08,-0.26 -1.48,-0.75 -0.51,-0.68 -0.8,-1.66 -0.8,-2.92 0,-1.24 0.37,-2.43 1.12,-3.6 0.37,-0.59 0.56,-0.98 0.56,-1.19 0,-0.19 -0.07,-0.33 -0.21,-0.44 -0.14,-0.14 -0.3,-0.19 -0.49,-0.19 -0.37,0 -0.73,0.19 -1.05,0.54 -0.56,0.59 -1.08,1.64 -1.52,3.18 -0.44,1.52 -0.68,3.25 -0.68,5.2l0 21.13 1.48 0c0.14,0 0.26,0.02 0.33,0.12 0.07,0.07 0.12,0.16 0.12,0.26l-0.09 0.26c-0.12,0.07 -0.23,0.12 -0.35,0.12l-7.84 0c-0.09,0 -0.16,-0.05 -0.26,-0.09 -0.07,-0.07 -0.09,-0.16 -0.09,-0.26 0,-0.12 0.05,-0.19 0.09,-0.26 0.07,-0.07 0.16,-0.09 0.26,-0.09l1.24 0 0 -29.86 0.05 -0.1zm-8.61 14.25l0 -12.43c0,-0.8 -0.16,-1.4 -0.47,-1.82 -0.21,-0.28 -0.54,-0.42 -0.96,-0.42 -0.42,0 -0.8,0.19 -1.1,0.54 -0.33,0.37 -0.49,0.94 -0.49,1.68l0 12.43 3 0 0.02 0.02zm-3 0.8l0 10.86c0,1.68 0.19,2.81 0.59,3.35 0.28,0.42 0.77,0.61 1.43,0.61 1.1,0 2.06,-0.61 2.92,-1.85 1.4,-2.06 2.18,-4.87 2.27,-8.42 0.02,-1.17 0.07,-1.82 0.16,-1.99 0.09,-0.16 0.21,-0.23 0.37,-0.23 0.14,0 0.23,0.07 0.33,0.19 0.09,0.16 0.14,0.51 0.14,1.1 0,3.46 -0.61,6.39 -1.82,8.75 -1.22,2.36 -2.85,3.56 -4.91,3.56 -1.92,0 -3.51,-0.91 -4.77,-2.74 -1.26,-1.8 -1.9,-5.76 -1.9,-11.82l0 -4.28c0,-4.66 0.87,-8.19 2.57,-10.6 1.22,-1.71 2.71,-2.57 4.45,-2.57 2.06,0 3.65,1.1 4.77,3.3 1.12,2.2 1.68,4.87 1.68,8.03l0 4.8 -8.24 0 -0.05 -0.02zm-14.06 -25.62c0,-0.82 0.3,-1.57 0.89,-2.15 0.61,-0.61 1.31,-0.89 2.13,-0.89 0.87,0 1.62,0.28 2.22,0.89 0.61,0.59 0.91,1.31 0.91,2.18 0,0.87 -0.3,1.59 -0.91,2.2 -0.59,0.59 -1.33,0.89 -2.2,0.89 -0.82,0 -1.54,-0.3 -2.15,-0.89 -0.61,-0.61 -0.89,-1.33 -0.89,-2.2l-0 -0.02zm0.4 10.6l-1.15 0c-0.12,0 -0.21,-0.02 -0.28,-0.09 -0.07,-0.07 -0.09,-0.16 -0.09,-0.26 0,-0.12 0.02,-0.21 0.09,-0.26 0.07,-0.07 0.16,-0.09 0.28,-0.09l6.36 0 0 30.58 1.26 0c0.12,0 0.21,0.02 0.28,0.09 0.07,0.07 0.12,0.16 0.12,0.3 0,0.09 -0.05,0.16 -0.12,0.23 -0.07,0.07 -0.16,0.09 -0.28,0.09l-7.63 0c-0.19,-0.12 -0.28,-0.26 -0.28,-0.35 0,-0.14 0.09,-0.26 0.28,-0.37l1.15 0 0 -29.86 0 -0.02zm-4.73 -13.29l0 43.15 1.15 0c0.09,0 0.19,0.02 0.26,0.09 0.07,0.07 0.09,0.16 0.09,0.26 0,0.12 -0.02,0.19 -0.09,0.26 -0.07,0.07 -0.14,0.09 -0.26,0.09l-7.58 0c-0.09,0 -0.19,-0.02 -0.26,-0.09 -0.07,-0.07 -0.09,-0.16 -0.09,-0.26 0,-0.12 0.02,-0.19 0.09,-0.26 0.07,-0.07 0.14,-0.09 0.26,-0.09l1.24 0 0 -42.42 -1.24 0c-0.12,0 -0.21,-0.02 -0.28,-0.09 -0.07,-0.07 -0.12,-0.14 -0.12,-0.26 0,-0.12 0.05,-0.21 0.12,-0.26 0.07,-0.07 0.16,-0.12 0.28,-0.12l6.44 0 0 0zm-13.92 27.54l0 -12.43c0,-0.8 -0.16,-1.4 -0.47,-1.82 -0.21,-0.28 -0.51,-0.42 -0.96,-0.42 -0.42,0 -0.8,0.19 -1.12,0.54 -0.33,0.37 -0.47,0.94 -0.47,1.68l0 12.43 3 0 0.02 0.02zm-3 0.79l0 10.86c0,1.68 0.19,2.81 0.59,3.35 0.28,0.42 0.77,0.61 1.43,0.61 1.08,0 2.06,-0.61 2.92,-1.85 1.43,-2.06 2.18,-4.87 2.27,-8.42 0.02,-1.17 0.07,-1.82 0.16,-1.99 0.09,-0.16 0.21,-0.23 0.37,-0.23 0.14,0 0.23,0.07 0.33,0.19 0.09,0.16 0.14,0.51 0.14,1.1 0,3.46 -0.61,6.39 -1.82,8.75 -1.22,2.36 -2.85,3.56 -4.91,3.56 -1.92,0 -3.51,-0.91 -4.77,-2.74 -1.26,-1.8 -1.9,-5.76 -1.9,-11.82l0 -4.28c0,-4.66 0.87,-8.19 2.57,-10.6 1.22,-1.71 2.71,-2.57 4.45,-2.57 2.06,0 3.65,1.1 4.77,3.3 1.12,2.2 1.68,4.87 1.68,8.03l0 4.8 -8.24 0 -0.05 -0.02zm-16.8 -15.02l-1.36 0c-0.19,0 -0.3,-0.02 -0.42,-0.12 -0.09,-0.07 -0.14,-0.16 -0.14,-0.28 0,-0.14 0.09,-0.28 0.26,-0.44 1.66,-1.26 2.85,-2.53 3.6,-3.77 0.73,-1.24 1.4,-2.71 1.97,-4.38 0.42,-1.19 0.63,-2.04 0.63,-2.5l0.05 -1.33c0.07,-0.09 0.14,-0.14 0.26,-0.14 0.12,0 0.21,0.02 0.28,0.09 0.05,0.05 0.09,0.14 0.09,0.23l0 11.93 4.33 0c0.14,0 0.26,0.05 0.35,0.12 0.09,0.07 0.14,0.16 0.14,0.26 0,0.12 -0.05,0.19 -0.12,0.26 -0.09,0.07 -0.23,0.12 -0.37,0.12l-4.33 0 0 27.19c0,0.84 0.12,1.4 0.35,1.73 0.16,0.23 0.37,0.35 0.7,0.35 0.68,0 1.24,-0.37 1.76,-1.12 0.75,-1.12 1.12,-2.85 1.12,-5.2l0 -4.26c0,-0.28 0.05,-0.49 0.19,-0.65 0.07,-0.09 0.16,-0.14 0.28,-0.14 0.12,0 0.21,0.05 0.28,0.14 0.12,0.16 0.19,0.37 0.19,0.65l0 3.23c0,3.28 -0.51,5.62 -1.57,6.97 -1.03,1.36 -2.34,2.04 -3.91,2.04 -1.45,0 -2.53,-0.4 -3.21,-1.19 -0.94,-1.08 -1.4,-2.6 -1.4,-4.56l0 -25.18 0 -0.05zm-10.48 11.82c-1.24,0.49 -2.04,0.98 -2.41,1.45 -0.35,0.49 -0.54,1.26 -0.54,2.34l0 12.35c0,0.42 0.07,0.7 0.23,0.91 0.14,0.19 0.33,0.28 0.54,0.28 0.33,0 0.65,-0.33 1.05,-0.98 0.77,-1.22 1.15,-2.71 1.15,-4.45l0 -11.91 -0.02 0zm-6.3 -9.45c0.28,-0.09 0.54,-0.16 0.77,-0.21 0.26,-0.05 0.49,-0.07 0.7,-0.07 0.77,0 1.43,0.28 1.97,0.84 0.54,0.59 0.8,1.31 0.8,2.22 0,0.94 -0.28,1.68 -0.82,2.25 -0.54,0.56 -1.26,0.84 -2.2,0.84 -0.91,0 -1.62,-0.28 -2.15,-0.87 -0.51,-0.59 -0.8,-1.43 -0.8,-2.55 0,-1.68 0.63,-3.07 1.9,-4.21 1.26,-1.12 3.07,-1.68 5.41,-1.68 2.11,0 3.6,0.4 4.54,1.17 0.91,0.8 1.38,1.78 1.38,3.02l0 25.23c0,0.28 0.07,0.54 0.23,0.73 0.14,0.19 0.33,0.28 0.49,0.28 0.49,0 0.98,-0.51 1.5,-1.54 0.14,-0.3 0.26,-0.47 0.4,-0.47l0.35 0.33c0,0.68 -0.44,1.4 -1.31,2.15 -0.89,0.75 -1.94,1.12 -3.16,1.12 -1.05,0 -1.87,-0.23 -2.46,-0.73 -0.56,-0.49 -1.01,-1.33 -1.29,-2.57 -0.89,1.33 -1.68,2.2 -2.34,2.64 -0.68,0.44 -1.48,0.65 -2.39,0.65 -1.12,0 -1.97,-0.28 -2.55,-0.87 -0.59,-0.59 -0.89,-1.33 -0.89,-2.27l0 -11c0,-1.19 0.26,-2.06 0.77,-2.62 0.51,-0.56 2.04,-1.26 4.56,-2.11 1.12,-0.4 2.08,-0.77 2.83,-1.17l0 -8.4c0,-0.87 -0.23,-1.57 -0.68,-2.04 -0.47,-0.47 -1.05,-0.73 -1.8,-0.73 -1.71,0 -3,0.87 -3.81,2.62l0.05 -0zm61.94 -24.8c-0.37,0.28 -0.82,0.8 -1.33,1.52 -0.4,0.51 -0.68,0.8 -0.89,0.8 -0.07,0 -0.14,-0.02 -0.19,-0.09 -0.07,-0.07 -0.09,-0.14 -0.09,-0.26l0 -13.67c0,-0.14 0.02,-0.23 0.09,-0.3 0.07,-0.07 0.14,-0.09 0.26,-0.09 0.12,0 0.19,0.05 0.26,0.12 0.07,0.07 0.12,0.4 0.16,0.94 0.26,3.77 0.89,6.9 1.92,9.43 0.73,1.82 1.62,2.74 2.62,2.74 0.51,0 0.96,-0.26 1.38,-0.75 0.4,-0.49 0.63,-1.22 0.63,-2.13 0,-1.08 -0.23,-2.39 -0.7,-3.93 -0.44,-1.54 -1.43,-3.93 -2.88,-7.18 -1.48,-3.23 -2.41,-5.57 -2.83,-7.02 -0.42,-1.45 -0.63,-2.69 -0.63,-3.79 0,-1.78 0.49,-3.23 1.48,-4.35 0.98,-1.12 2.13,-1.66 3.44,-1.66 1.15,0 2.29,0.54 3.39,1.62 0.28,-0.19 0.73,-0.59 1.31,-1.15 0.33,-0.3 0.56,-0.44 0.68,-0.44 0.07,0 0.14,0.02 0.21,0.07 0.07,0.07 0.09,0.16 0.09,0.26l0 12.31c0,0.14 -0.05,0.26 -0.12,0.33 -0.07,0.09 -0.16,0.12 -0.26,0.12 -0.12,0 -0.21,-0.05 -0.28,-0.14 -0.05,-0.09 -0.09,-0.4 -0.14,-0.87 -0.26,-3.58 -0.8,-6.5 -1.64,-8.73 -0.61,-1.54 -1.38,-2.34 -2.36,-2.34 -0.54,0 -0.98,0.21 -1.36,0.61 -0.37,0.4 -0.56,0.96 -0.56,1.66 0,1.78 1.17,4.98 3.49,9.6 1.57,3.09 2.62,5.52 3.18,7.37 0.56,1.82 0.84,3.44 0.84,4.84 0,2.13 -0.54,3.79 -1.64,5.05 -1.1,1.26 -2.36,1.9 -3.79,1.9 -0.75,0 -1.38,-0.16 -1.94,-0.51 -0.54,-0.35 -1.15,-0.94 -1.73,-1.8l-0.08 -0.05zm-10.16 -14.39l0 -12.43c0,-0.8 -0.16,-1.4 -0.47,-1.82 -0.21,-0.28 -0.51,-0.42 -0.96,-0.42 -0.42,0 -0.8,0.19 -1.12,0.54 -0.33,0.37 -0.47,0.94 -0.47,1.68l0 12.43 3.02 0 -0 0.02zm-3.02 0.8l0 10.86c0,1.68 0.21,2.81 0.59,3.35 0.28,0.42 0.77,0.61 1.43,0.61 1.1,0 2.06,-0.61 2.92,-1.85 1.43,-2.06 2.18,-4.87 2.27,-8.42 0.02,-1.17 0.07,-1.82 0.16,-1.99 0.09,-0.16 0.21,-0.23 0.37,-0.23 0.14,0 0.23,0.07 0.33,0.19 0.09,0.16 0.14,0.51 0.14,1.12 0,3.46 -0.61,6.36 -1.82,8.73 -1.22,2.36 -2.85,3.53 -4.91,3.53 -1.92,0 -3.51,-0.91 -4.8,-2.74 -1.26,-1.82 -1.9,-5.76 -1.9,-11.82l0 -4.28c0,-4.66 0.87,-8.19 2.57,-10.6 1.22,-1.71 2.69,-2.57 4.42,-2.57 2.06,0 3.65,1.1 4.77,3.3 1.12,2.2 1.66,4.87 1.66,8.03l0 4.8 -8.24 0 0.02 0zm-8.8 -84.71l0 99.52 1.15 0c0.09,0 0.19,0.02 0.26,0.09 0.07,0.07 0.09,0.16 0.09,0.28 0,0.12 -0.02,0.19 -0.09,0.26 -0.07,0.07 -0.14,0.09 -0.23,0.09l-7.58 0c-0.09,0 -0.19,-0.02 -0.26,-0.09 -0.07,-0.07 -0.09,-0.14 -0.09,-0.26 0,-0.12 0.02,-0.21 0.09,-0.28 0.07,-0.07 0.14,-0.09 0.26,-0.09l1.24 0 0 -98.8 -1.24 0c-0.12,0 -0.21,-0.02 -0.28,-0.09 -0.07,-0.07 -0.12,-0.14 -0.12,-0.26 0,-0.12 0.05,-0.19 0.12,-0.26 0.07,-0.09 0.16,-0.12 0.28,-0.12l6.44 0 -0.02 0zm50.43 215.94c-2.78,1.08 -4.56,2.18 -5.38,3.25 -0.8,1.08 -1.22,2.83 -1.22,5.22l0 27.54c0,0.91 0.16,1.59 0.49,2.01 0.33,0.44 0.73,0.65 1.19,0.65 0.7,0 1.48,-0.73 2.34,-2.22 1.68,-2.74 2.55,-6.04 2.55,-9.9l0 -26.56 0.02 0zm-14.06 -21.08c0.61,-0.21 1.19,-0.4 1.78,-0.49 0.56,-0.12 1.08,-0.16 1.54,-0.16 1.73,0 3.21,0.63 4.4,1.9 1.19,1.26 1.78,2.92 1.78,4.94 0,2.08 -0.61,3.77 -1.82,5.01 -1.22,1.26 -2.85,1.87 -4.89,1.87 -2.04,0 -3.65,-0.63 -4.82,-1.92 -1.17,-1.29 -1.76,-3.18 -1.76,-5.69 0,-3.74 1.4,-6.86 4.23,-9.38 2.81,-2.53 6.83,-3.77 12.05,-3.77 4.68,0 8.07,0.87 10.13,2.62 2.06,1.76 3.09,4.03 3.09,6.74l0 56.28c0,0.65 0.16,1.17 0.51,1.59 0.35,0.42 0.73,0.61 1.1,0.61 1.08,0 2.2,-1.15 3.32,-3.44 0.3,-0.7 0.61,-1.03 0.91,-1.03l0.77 0.7c0,1.52 -0.98,3.14 -2.92,4.82 -1.97,1.68 -4.31,2.55 -7.04,2.55 -2.34,0 -4.17,-0.54 -5.43,-1.64 -1.29,-1.1 -2.25,-3 -2.9,-5.73 -1.99,2.95 -3.74,4.91 -5.24,5.9 -1.5,0.96 -3.28,1.48 -5.31,1.48 -2.48,0 -4.38,-0.63 -5.71,-1.92 -1.33,-1.29 -1.99,-2.97 -1.99,-5.03l0 -24.55c0,-2.64 0.59,-4.61 1.73,-5.87 1.17,-1.26 4.56,-2.81 10.2,-4.68 2.53,-0.87 4.63,-1.73 6.32,-2.62l0 -18.74c0,-1.94 -0.51,-3.49 -1.52,-4.56 -1.03,-1.08 -2.36,-1.62 -4,-1.62 -3.81,0 -6.67,1.94 -8.54,5.85l0.03 0zm-20.31 26.49l0 -27.75c0,-1.78 -0.35,-3.14 -1.03,-4.03 -0.47,-0.65 -1.17,-0.98 -2.13,-0.98 -0.94,0 -1.78,0.42 -2.48,1.24 -0.7,0.84 -1.08,2.08 -1.08,3.77l0 27.75 6.72 0 0 0zm-8.59 -59.06l12.96 0 -11.84 21.04c-0.3,0.56 -0.68,0.84 -1.12,0.84l-0.51 -0.19c-0.19,-0.26 -0.26,-0.56 -0.26,-0.91l0.77 -20.78 0 -0zm1.9 60.82l0 24.22c0,3.79 0.44,6.27 1.31,7.49 0.65,0.91 1.71,1.38 3.21,1.38 2.41,0 4.59,-1.38 6.5,-4.09 3.16,-4.61 4.87,-10.88 5.08,-18.81 0.05,-2.62 0.16,-4.07 0.35,-4.42 0.19,-0.35 0.44,-0.54 0.8,-0.54 0.3,0 0.54,0.14 0.73,0.4 0.23,0.35 0.33,1.17 0.33,2.48 0,7.72 -1.36,14.23 -4.07,19.49 -2.71,5.27 -6.36,7.93 -10.97,7.93 -4.31,0 -7.86,-2.04 -10.69,-6.11 -2.81,-4.05 -4.23,-12.87 -4.23,-26.4l0 -9.57c0,-10.37 1.92,-18.25 5.73,-23.66 2.74,-3.81 6.04,-5.73 9.9,-5.73 4.61,0 8.14,2.46 10.65,7.35 2.5,4.91 3.74,10.88 3.74,17.9l0 10.67 -18.37 0 0.02 0.02zm-48.77 -61.59l-4.05 0c-0.47,-0.3 -0.7,-0.56 -0.7,-0.77 0,-0.26 0.23,-0.54 0.7,-0.84l21.69 0c0.21,0 0.4,0.07 0.54,0.23 0.14,0.14 0.21,0.33 0.21,0.54 0,0.26 -0.07,0.47 -0.21,0.63 -0.16,0.16 -0.33,0.23 -0.54,0.23l-4.31 0 0 94.61 2.74 0c1.94,0 3.67,-0.54 5.15,-1.66 1.5,-1.1 2.92,-3.39 4.31,-6.86 2.06,-5.12 3.56,-10.72 4.49,-16.75 0.94,-6.06 1.43,-9.94 1.48,-11.63 0.05,-0.61 0.12,-0.98 0.23,-1.17l0.51 -0.19 0.49 0.19c0.16,0.19 0.26,0.37 0.26,0.59l-0.51 39.2 -36.6 0c-0.21,0 -0.4,-0.07 -0.56,-0.23 -0.14,-0.14 -0.21,-0.35 -0.21,-0.59 0,-0.26 0.07,-0.44 0.23,-0.61 0.16,-0.14 0.33,-0.21 0.56,-0.21l4.09 0 0 -94.68 0 -0.02zm91.43 -80.1l-38.24 -72.68c-0.61,-1.17 -2.5,-1.17 -3.11,0l-6.2 11.77 0 7.56 7.75 -14.74 36.46 69.34 0 17.92c0,0.96 0.8,1.76 1.76,1.76 0.98,0 1.76,-0.8 1.76,-1.76l0 -18.35c0,-0.28 -0.07,-0.56 -0.19,-0.82l0.02 -0zm-61.57 -34.24l-18 34.24c-0.14,0.26 -0.21,0.54 -0.21,0.82l0 18.37c0,0.96 0.8,1.76 1.76,1.76 0.96,0 1.76,-0.8 1.76,-1.76l0 -17.92 14.67 -27.92 0 -7.56 0.02 -0.02z"/>
   <path class="fil1" d="M78.02 98.98l-18 34.24c-0.14,0.26 -0.21,0.54 -0.21,0.82l0 18.37c0,0.96 0.8,1.76 1.76,1.76 0.96,0 1.76,-0.8 1.76,-1.76l0 -17.92 14.67 -27.92 0 -7.56 0.02 -0.02z"/>
   <path class="fil1" d="M48.16 213.3l-4.05 0c-0.47,-0.3 -0.7,-0.56 -0.7,-0.77 0,-0.26 0.23,-0.54 0.7,-0.84l21.69 0c0.21,0 0.4,0.07 0.54,0.23 0.14,0.14 0.21,0.33 0.21,0.54 0,0.26 -0.07,0.47 -0.21,0.63 -0.16,0.16 -0.33,0.23 -0.54,0.23l-4.31 0 0 94.61 2.74 0c1.94,0 3.67,-0.54 5.15,-1.66 1.5,-1.1 2.92,-3.39 4.31,-6.86 2.06,-5.12 3.56,-10.72 4.49,-16.75 0.94,-6.06 1.43,-9.94 1.48,-11.63 0.02,-0.61 0.12,-0.98 0.23,-1.17l0.51 -0.19 0.49 0.19c0.16,0.19 0.26,0.37 0.26,0.59l-0.51 39.2 -36.6 0c-0.21,0 -0.4,-0.07 -0.56,-0.23 -0.14,-0.14 -0.21,-0.35 -0.21,-0.59 0,-0.26 0.07,-0.44 0.23,-0.61 0.16,-0.14 0.33,-0.21 0.56,-0.21l4.09 0 0 -94.68 0 -0.02z"/>
   <path class="fil1" d="M103.64 273.16l0 -27.73c0,-1.78 -0.35,-3.14 -1.03,-4.03 -0.47,-0.65 -1.17,-0.98 -2.13,-0.98 -0.94,0 -1.78,0.42 -2.48,1.24 -0.7,0.84 -1.08,2.08 -1.08,3.77l0 27.73 6.72 0 0 0zm-8.59 -59.06l12.96 0 -11.84 21.04c-0.3,0.56 -0.68,0.84 -1.12,0.84l-0.51 -0.19c-0.19,-0.26 -0.26,-0.56 -0.26,-0.91l0.77 -20.78 0 -0zm1.9 60.82l0 24.22c0,3.79 0.44,6.3 1.31,7.49 0.65,0.91 1.71,1.38 3.21,1.38 2.41,0 4.59,-1.38 6.5,-4.09 3.16,-4.61 4.87,-10.88 5.08,-18.81 0.05,-2.62 0.16,-4.07 0.35,-4.42 0.19,-0.35 0.44,-0.54 0.8,-0.54 0.3,0 0.54,0.14 0.73,0.4 0.23,0.35 0.33,1.17 0.33,2.48 0,7.72 -1.36,14.23 -4.07,19.49 -2.71,5.27 -6.36,7.93 -10.97,7.93 -4.31,0 -7.86,-2.04 -10.69,-6.11 -2.81,-4.05 -4.23,-12.87 -4.23,-26.4l0 -9.57c0,-10.37 1.92,-18.25 5.73,-23.66 2.74,-3.81 6.04,-5.73 9.9,-5.73 4.61,0 8.14,2.46 10.65,7.35 2.5,4.91 3.74,10.88 3.74,17.9l0 10.67 -18.37 0 0.02 0.02z"/>
   <path class="fil1" d="M138.04 267.75c-2.78,1.08 -4.56,2.18 -5.38,3.25 -0.8,1.08 -1.22,2.83 -1.22,5.22l0 27.54c0,0.91 0.16,1.59 0.49,2.01 0.33,0.44 0.73,0.65 1.19,0.65 0.7,0 1.48,-0.73 2.34,-2.22 1.68,-2.74 2.55,-6.04 2.55,-9.9l0 -26.56 0.02 0zm-14.06 -21.08c0.61,-0.21 1.19,-0.4 1.78,-0.49 0.56,-0.12 1.08,-0.16 1.54,-0.16 1.73,0 3.21,0.63 4.4,1.9 1.19,1.26 1.78,2.92 1.78,4.94 0,2.08 -0.61,3.77 -1.82,5.01 -1.22,1.26 -2.85,1.87 -4.89,1.87 -2.04,0 -3.65,-0.63 -4.82,-1.92 -1.17,-1.29 -1.76,-3.18 -1.76,-5.69 0,-3.74 1.4,-6.86 4.23,-9.38 2.81,-2.53 6.83,-3.77 12.05,-3.77 4.68,0 8.07,0.87 10.13,2.62 2.06,1.76 3.09,4.03 3.09,6.74l0 56.28c0,0.65 0.16,1.17 0.51,1.59 0.35,0.42 0.73,0.61 1.1,0.61 1.08,0 2.2,-1.15 3.32,-3.44 0.3,-0.7 0.61,-1.03 0.91,-1.03l0.77 0.7c0,1.52 -0.98,3.14 -2.92,4.82 -1.97,1.68 -4.31,2.55 -7.04,2.55 -2.34,0 -4.17,-0.54 -5.43,-1.64 -1.29,-1.1 -2.25,-3 -2.9,-5.73 -1.99,2.95 -3.74,4.91 -5.24,5.9 -1.5,0.96 -3.28,1.48 -5.31,1.48 -2.48,0 -4.38,-0.63 -5.71,-1.92 -1.33,-1.29 -1.99,-2.97 -1.99,-5.03l0 -24.55c0,-2.64 0.59,-4.61 1.73,-5.87 1.17,-1.26 4.56,-2.81 10.2,-4.68 2.53,-0.87 4.63,-1.73 6.32,-2.62l0 -18.74c0,-1.94 -0.51,-3.49 -1.52,-4.56 -1.03,-1.08 -2.36,-1.62 -4,-1.62 -3.81,0 -6.67,1.94 -8.54,5.85l0.03 0z"/>
   <path class="fil1" d="M87.61 51.81l0 99.52 1.15 0c0.09,0 0.19,0.02 0.26,0.09 0.07,0.07 0.09,0.16 0.09,0.28 0,0.12 -0.02,0.19 -0.09,0.26 -0.07,0.07 -0.14,0.09 -0.23,0.09l-7.58 0c-0.09,0 -0.19,-0.02 -0.26,-0.09 -0.07,-0.07 -0.09,-0.14 -0.09,-0.26 0,-0.12 0.02,-0.21 0.09,-0.28 0.07,-0.07 0.14,-0.09 0.26,-0.09l1.24 0 0 -98.8 -1.24 0c-0.12,0 -0.21,-0.02 -0.28,-0.09 -0.07,-0.07 -0.12,-0.14 -0.12,-0.26 0,-0.12 0.05,-0.19 0.12,-0.26 0.07,-0.09 0.16,-0.12 0.28,-0.12l6.44 0 -0.02 0z"/>
   <path class="fil1" d="M99.43 135.72l0 -12.43c0,-0.8 -0.16,-1.4 -0.47,-1.82 -0.21,-0.28 -0.51,-0.42 -0.96,-0.42 -0.42,0 -0.8,0.19 -1.12,0.54 -0.33,0.37 -0.47,0.94 -0.47,1.68l0 12.43 3.02 0 -0 0.02zm-3.02 0.8l0 10.86c0,1.68 0.21,2.81 0.59,3.35 0.28,0.42 0.77,0.61 1.43,0.61 1.1,0 2.06,-0.61 2.92,-1.85 1.43,-2.06 2.18,-4.87 2.27,-8.42 0.02,-1.17 0.07,-1.82 0.16,-1.99 0.09,-0.16 0.21,-0.23 0.37,-0.23 0.14,0 0.23,0.07 0.33,0.19 0.09,0.16 0.14,0.51 0.14,1.12 0,3.46 -0.61,6.36 -1.82,8.73 -1.22,2.36 -2.85,3.53 -4.91,3.53 -1.92,0 -3.51,-0.91 -4.8,-2.74 -1.26,-1.82 -1.9,-5.76 -1.9,-11.82l0 -4.28c0,-4.66 0.87,-8.19 2.57,-10.6 1.22,-1.71 2.69,-2.57 4.42,-2.57 2.06,0 3.65,1.1 4.77,3.3 1.12,2.2 1.66,4.87 1.66,8.03l0 4.8 -8.24 0 0.02 0z"/>
   <path class="fil1" d="M109.59 150.11c-0.37,0.28 -0.82,0.8 -1.33,1.52 -0.4,0.51 -0.68,0.8 -0.89,0.8 -0.07,0 -0.14,-0.02 -0.19,-0.09 -0.07,-0.07 -0.09,-0.14 -0.09,-0.26l0 -13.67c0,-0.14 0.02,-0.23 0.09,-0.3 0.07,-0.07 0.14,-0.09 0.26,-0.09 0.12,0 0.19,0.05 0.26,0.12 0.07,0.07 0.12,0.4 0.16,0.94 0.26,3.77 0.89,6.9 1.92,9.43 0.73,1.82 1.62,2.74 2.62,2.74 0.51,0 0.96,-0.26 1.38,-0.75 0.4,-0.49 0.63,-1.22 0.63,-2.13 0,-1.08 -0.23,-2.39 -0.7,-3.93 -0.44,-1.54 -1.43,-3.93 -2.88,-7.18 -1.48,-3.23 -2.41,-5.57 -2.83,-7.02 -0.42,-1.45 -0.63,-2.69 -0.63,-3.79 0,-1.78 0.49,-3.23 1.48,-4.33 0.98,-1.12 2.13,-1.66 3.44,-1.66 1.15,0 2.29,0.54 3.39,1.62 0.28,-0.19 0.73,-0.59 1.31,-1.15 0.33,-0.3 0.56,-0.44 0.68,-0.44 0.07,0 0.14,0.02 0.21,0.07 0.07,0.07 0.09,0.16 0.09,0.26l0 12.31c0,0.14 -0.05,0.26 -0.12,0.33 -0.07,0.09 -0.16,0.12 -0.26,0.12 -0.12,0 -0.21,-0.05 -0.28,-0.14 -0.05,-0.09 -0.09,-0.4 -0.14,-0.87 -0.26,-3.58 -0.8,-6.5 -1.64,-8.73 -0.61,-1.54 -1.38,-2.34 -2.36,-2.34 -0.54,0 -0.98,0.21 -1.36,0.61 -0.37,0.4 -0.56,0.96 -0.56,1.66 0,1.78 1.17,4.98 3.49,9.6 1.57,3.09 2.62,5.52 3.18,7.37 0.56,1.82 0.84,3.44 0.84,4.84 0,2.13 -0.54,3.79 -1.64,5.05 -1.1,1.26 -2.36,1.9 -3.79,1.9 -0.75,0 -1.38,-0.16 -1.94,-0.51 -0.54,-0.35 -1.15,-0.94 -1.73,-1.8l-0.08 -0.07z"/>
   <path class="fil1" d="M53.94 184.35c-1.24,0.49 -2.04,0.98 -2.41,1.45 -0.35,0.49 -0.54,1.26 -0.54,2.34l0 12.35c0,0.42 0.07,0.7 0.23,0.91 0.14,0.19 0.33,0.28 0.54,0.28 0.33,0 0.65,-0.33 1.05,-0.98 0.77,-1.22 1.15,-2.71 1.15,-4.45l0 -11.91 -0.02 0zm-6.3 -9.45c0.28,-0.09 0.54,-0.16 0.77,-0.21 0.26,-0.05 0.49,-0.07 0.7,-0.07 0.77,0 1.43,0.28 1.97,0.84 0.54,0.59 0.8,1.31 0.8,2.22 0,0.94 -0.28,1.68 -0.82,2.25 -0.54,0.56 -1.26,0.84 -2.2,0.84 -0.91,0 -1.62,-0.28 -2.15,-0.87 -0.51,-0.59 -0.8,-1.43 -0.8,-2.55 0,-1.68 0.63,-3.07 1.9,-4.21 1.26,-1.12 3.07,-1.68 5.41,-1.68 2.11,0 3.6,0.4 4.54,1.17 0.91,0.8 1.38,1.78 1.38,3.02l0 25.23c0,0.28 0.07,0.54 0.23,0.73 0.14,0.19 0.33,0.28 0.49,0.28 0.49,0 0.98,-0.51 1.5,-1.54 0.14,-0.3 0.26,-0.47 0.4,-0.47l0.35 0.33c0,0.68 -0.44,1.4 -1.31,2.15 -0.89,0.75 -1.94,1.12 -3.16,1.12 -1.05,0 -1.87,-0.23 -2.46,-0.73 -0.56,-0.49 -1.01,-1.33 -1.29,-2.57 -0.89,1.33 -1.68,2.2 -2.34,2.64 -0.68,0.44 -1.48,0.65 -2.39,0.65 -1.12,0 -1.97,-0.28 -2.55,-0.87 -0.59,-0.59 -0.89,-1.33 -0.89,-2.27l0 -11c0,-1.19 0.26,-2.06 0.77,-2.62 0.51,-0.56 2.04,-1.26 4.56,-2.11 1.12,-0.4 2.08,-0.77 2.83,-1.17l0 -8.4c0,-0.87 -0.23,-1.57 -0.68,-2.04 -0.47,-0.47 -1.05,-0.73 -1.8,-0.73 -1.71,0 -3,0.87 -3.81,2.62l0.05 -0z"/>
   <path class="fil1" d="M64.42 172.53l-1.36 0c-0.19,0 -0.3,-0.02 -0.42,-0.12 -0.09,-0.07 -0.14,-0.16 -0.14,-0.28 0,-0.14 0.09,-0.28 0.26,-0.44 1.66,-1.26 2.85,-2.53 3.6,-3.77 0.73,-1.24 1.4,-2.71 1.97,-4.38 0.42,-1.19 0.63,-2.04 0.63,-2.5l0.05 -1.33c0.07,-0.09 0.14,-0.14 0.26,-0.14 0.12,0 0.21,0.02 0.28,0.09 0.05,0.05 0.09,0.14 0.09,0.23l0 11.93 4.33 0c0.14,0 0.26,0.05 0.35,0.12 0.09,0.07 0.14,0.16 0.14,0.26 0,0.12 -0.05,0.19 -0.12,0.26 -0.09,0.07 -0.23,0.12 -0.37,0.12l-4.33 0 0 27.19c0,0.84 0.12,1.4 0.35,1.73 0.16,0.23 0.37,0.35 0.7,0.35 0.68,0 1.24,-0.37 1.76,-1.12 0.75,-1.12 1.12,-2.85 1.12,-5.2l0 -4.26c0,-0.28 0.05,-0.49 0.19,-0.65 0.07,-0.09 0.16,-0.14 0.28,-0.14 0.12,0 0.21,0.05 0.28,0.14 0.12,0.16 0.19,0.37 0.19,0.65l0 3.23c0,3.28 -0.51,5.62 -1.57,6.97 -1.03,1.36 -2.34,2.04 -3.91,2.04 -1.45,0 -2.53,-0.4 -3.21,-1.19 -0.94,-1.08 -1.4,-2.6 -1.4,-4.56l0 -25.18 0 -0.05z"/>
   <path class="fil1" d="M84.22 186.78l0 -12.43c0,-0.8 -0.16,-1.4 -0.47,-1.82 -0.21,-0.28 -0.51,-0.42 -0.96,-0.42 -0.42,0 -0.8,0.19 -1.12,0.54 -0.33,0.37 -0.47,0.94 -0.47,1.68l0 12.43 3 0 0.02 0.02zm-3 0.79l0 10.86c0,1.68 0.19,2.81 0.59,3.35 0.28,0.42 0.77,0.61 1.43,0.61 1.08,0 2.06,-0.61 2.92,-1.85 1.43,-2.06 2.18,-4.87 2.27,-8.42 0.02,-1.17 0.07,-1.82 0.16,-1.99 0.09,-0.16 0.21,-0.23 0.37,-0.23 0.14,0 0.23,0.07 0.33,0.19 0.09,0.16 0.14,0.51 0.14,1.1 0,3.46 -0.61,6.39 -1.82,8.75 -1.22,2.36 -2.85,3.56 -4.91,3.56 -1.92,0 -3.51,-0.91 -4.77,-2.74 -1.26,-1.8 -1.9,-5.76 -1.9,-11.82l0 -4.28c0,-4.66 0.87,-8.19 2.57,-10.6 1.22,-1.71 2.71,-2.57 4.45,-2.57 2.06,0 3.65,1.1 4.77,3.3 1.12,2.2 1.68,4.87 1.68,8.03l0 4.8 -8.24 0 -0.05 -0.02z"/>
   <path class="fil1" d="M98.14 159.24l0 43.15 1.15 0c0.09,0 0.19,0.02 0.26,0.09 0.07,0.07 0.09,0.16 0.09,0.26 0,0.12 -0.02,0.19 -0.09,0.26 -0.07,0.07 -0.14,0.09 -0.26,0.09l-7.58 0c-0.09,0 -0.19,-0.02 -0.26,-0.09 -0.07,-0.07 -0.09,-0.16 -0.09,-0.26 0,-0.12 0.02,-0.19 0.09,-0.26 0.07,-0.07 0.14,-0.09 0.26,-0.09l1.24 0 0 -42.42 -1.24 0c-0.12,0 -0.21,-0.02 -0.28,-0.09 -0.07,-0.07 -0.12,-0.14 -0.12,-0.26 0,-0.12 0.05,-0.21 0.12,-0.26 0.07,-0.07 0.16,-0.12 0.28,-0.12l6.44 0 0 0z"/>
   <path class="fil1" d="M102.47 161.93c0,-0.82 0.3,-1.57 0.89,-2.15 0.61,-0.61 1.31,-0.89 2.13,-0.89 0.87,0 1.62,0.28 2.22,0.89 0.61,0.59 0.91,1.31 0.91,2.18 0,0.87 -0.3,1.59 -0.91,2.2 -0.59,0.59 -1.33,0.89 -2.2,0.89 -0.82,0 -1.54,-0.3 -2.15,-0.89 -0.61,-0.61 -0.89,-1.33 -0.89,-2.2l-0 -0.02zm0.4 10.6l-1.15 0c-0.12,0 -0.21,-0.02 -0.28,-0.09 -0.07,-0.07 -0.09,-0.16 -0.09,-0.26 0,-0.12 0.02,-0.21 0.09,-0.26 0.07,-0.07 0.16,-0.09 0.28,-0.09l6.36 0 0 30.58 1.26 0c0.12,0 0.21,0.02 0.28,0.09 0.07,0.07 0.12,0.16 0.12,0.3 0,0.09 -0.05,0.16 -0.12,0.23 -0.07,0.07 -0.16,0.09 -0.28,0.09l-7.63 0c-0.19,-0.12 -0.28,-0.26 -0.28,-0.35 0,-0.14 0.09,-0.26 0.28,-0.37l1.15 0 0 -29.86 0 -0.02z"/>
   <path class="fil1" d="M119.53 186.78l0 -12.43c0,-0.8 -0.16,-1.4 -0.47,-1.82 -0.21,-0.28 -0.54,-0.42 -0.96,-0.42 -0.42,0 -0.8,0.19 -1.1,0.54 -0.33,0.37 -0.49,0.94 -0.49,1.68l0 12.43 3 0 0.02 0.02zm-3 0.79l0 10.86c0,1.68 0.19,2.81 0.59,3.35 0.28,0.42 0.77,0.61 1.43,0.61 1.1,0 2.06,-0.61 2.92,-1.85 1.4,-2.06 2.18,-4.87 2.27,-8.42 0.02,-1.17 0.07,-1.82 0.16,-1.99 0.09,-0.16 0.21,-0.23 0.37,-0.23 0.14,0 0.23,0.07 0.33,0.19 0.09,0.16 0.14,0.51 0.14,1.1 0,3.46 -0.61,6.39 -1.82,8.75 -1.22,2.36 -2.85,3.56 -4.91,3.56 -1.92,0 -3.51,-0.91 -4.77,-2.74 -1.26,-1.8 -1.9,-5.76 -1.9,-11.82l0 -4.28c0,-4.66 0.87,-8.19 2.57,-10.6 1.22,-1.71 2.71,-2.57 4.45,-2.57 2.06,0 3.65,1.1 4.77,3.3 1.12,2.2 1.68,4.87 1.68,8.03l0 4.8 -8.24 0 -0.05 -0.02z"/>
   <path class="fil1" d="M128.14 172.53l-1.24 0c-0.12,0 -0.21,-0.02 -0.28,-0.09 -0.07,-0.07 -0.09,-0.16 -0.09,-0.26 0,-0.12 0.02,-0.21 0.09,-0.26 0.07,-0.07 0.16,-0.09 0.28,-0.09l6.36 0 0 3.86c0.65,-1.76 1.26,-2.9 1.85,-3.42 0.56,-0.51 1.17,-0.8 1.82,-0.8 0.87,0 1.66,0.44 2.36,1.31 0.89,1.12 1.33,2.55 1.33,4.26 0,1.45 -0.3,2.57 -0.91,3.32 -0.59,0.75 -1.24,1.12 -1.97,1.12 -0.59,0 -1.08,-0.26 -1.48,-0.75 -0.51,-0.68 -0.8,-1.66 -0.8,-2.92 0,-1.24 0.37,-2.43 1.12,-3.6 0.37,-0.59 0.56,-0.98 0.56,-1.19 0,-0.19 -0.07,-0.33 -0.21,-0.44 -0.14,-0.14 -0.3,-0.19 -0.49,-0.19 -0.37,0 -0.73,0.19 -1.05,0.54 -0.56,0.59 -1.08,1.64 -1.52,3.18 -0.44,1.52 -0.68,3.25 -0.68,5.2l0 21.13 1.48 0c0.14,0 0.26,0.02 0.33,0.12 0.07,0.07 0.12,0.16 0.12,0.26l-0.09 0.26c-0.12,0.07 -0.23,0.12 -0.35,0.12l-7.84 0c-0.09,0 -0.16,-0.05 -0.26,-0.09 -0.07,-0.07 -0.09,-0.16 -0.09,-0.26 0,-0.12 0.05,-0.19 0.09,-0.26 0.07,-0.07 0.16,-0.09 0.26,-0.09l1.24 0 0 -29.86 0.05 -0.1z"/>
   <path class="fil1" d="M144.74 201.18c-0.37,0.28 -0.82,0.8 -1.33,1.52 -0.4,0.51 -0.68,0.8 -0.89,0.8 -0.07,0 -0.14,-0.02 -0.19,-0.09 -0.07,-0.05 -0.09,-0.14 -0.09,-0.26l0 -13.67c0,-0.14 0.02,-0.23 0.09,-0.3 0.07,-0.07 0.14,-0.09 0.26,-0.09 0.12,0 0.21,0.05 0.26,0.12 0.05,0.07 0.09,0.4 0.14,0.94 0.26,3.77 0.89,6.9 1.92,9.43 0.73,1.82 1.62,2.74 2.62,2.74 0.51,0 0.96,-0.26 1.36,-0.75 0.42,-0.49 0.63,-1.22 0.63,-2.13 0,-1.08 -0.23,-2.39 -0.7,-3.93 -0.44,-1.54 -1.43,-3.93 -2.88,-7.18 -1.48,-3.23 -2.41,-5.57 -2.83,-7.02 -0.42,-1.43 -0.63,-2.69 -0.63,-3.79 0,-1.8 0.49,-3.23 1.48,-4.35 0.98,-1.12 2.13,-1.66 3.44,-1.66 1.15,0 2.29,0.54 3.39,1.62 0.28,-0.19 0.73,-0.59 1.31,-1.15 0.33,-0.3 0.56,-0.44 0.68,-0.44 0.07,0 0.16,0.02 0.21,0.07 0.07,0.07 0.09,0.16 0.09,0.26l0 12.31c0,0.14 -0.05,0.26 -0.12,0.33 -0.07,0.09 -0.16,0.12 -0.26,0.12 -0.12,0 -0.21,-0.05 -0.28,-0.14 -0.05,-0.09 -0.09,-0.4 -0.14,-0.87 -0.26,-3.58 -0.8,-6.5 -1.64,-8.73 -0.59,-1.54 -1.38,-2.34 -2.36,-2.34 -0.54,0 -1.01,0.21 -1.36,0.61 -0.37,0.4 -0.56,0.96 -0.56,1.66 0,1.78 1.17,4.96 3.49,9.6 1.54,3.07 2.6,5.52 3.18,7.35 0.56,1.82 0.84,3.44 0.84,4.84 0,2.13 -0.54,3.81 -1.64,5.05 -1.1,1.26 -2.36,1.9 -3.79,1.9 -0.73,0 -1.38,-0.16 -1.94,-0.51 -0.54,-0.35 -1.12,-0.94 -1.73,-1.78l-0.03 -0.05z"/>
   <path class="fil1" d="M138.06 327.35l-76.52 0c-0.98,0 -1.76,-0.8 -1.76,-1.76 0,-0.96 0.8,-1.76 1.76,-1.76l76.52 0c0.98,0 1.76,0.8 1.76,1.76 0,0.98 -0.8,1.76 -1.76,1.76z"/>
  </g>
 </g>
</svg>
