<?xml version="1.0" encoding="UTF-8"?>
<!DOCTYPE svg PUBLIC "-//W3C//DTD SVG 1.1//EN" "http://www.w3.org/Graphics/SVG/1.1/DTD/svg11.dtd">
<!-- Creator: CorelDRAW -->
<svg xmlns="http://www.w3.org/2000/svg" xml:space="preserve" width="24.6985mm" height="24.7035mm" version="1.1" style="shape-rendering:geometricPrecision; text-rendering:geometricPrecision; image-rendering:optimizeQuality; fill-rule:evenodd; clip-rule:evenodd"
viewBox="0 0 918.04 918.22"
 xmlns:xlink="http://www.w3.org/1999/xlink"
 xmlns:xodm="http://www.corel.com/coreldraw/odm/2003">
 <defs>
  <style type="text/css">
   <![CDATA[
    .fil0 {fill:#51AF00}
    .fil1 {fill:white}
   ]]>
  </style>
 </defs>
 <g id="Plan_x0020_1">
  <metadata id="CorelCorpID_0Corel-Layer"/>
  <g id="_2013819096800">
   <path class="fil0" d="M366.7 1.05c-18.73,4.55 -22.32,14.62 -33.64,27.61 -9.41,10.81 -18.2,24.09 -31.47,31.47 -35.94,19.99 -77.68,-8.59 -103.83,11.62 -22.72,17.56 -17.53,58.93 -40.79,82.55 -28.16,28.59 -64.52,19.11 -84.03,41.96 -22.23,26.04 7.45,69.14 -12.81,105.32 -15.02,26.84 -54.91,38.9 -59.61,66.31 -5.2,30.36 30.17,55.8 30.21,90.87 0.04,36.31 -36.73,61.35 -29.88,93.21 5.62,26.16 44.69,37.86 59.11,64.2 20.58,37.58 -10.08,80.72 13.78,106.94 19.48,21.41 54.45,11.68 83.11,40.2 23.73,23.61 18.04,67.32 42.02,83.94 27.2,18.85 69.03,-10.69 105.72,12.39 29.1,18.3 35.8,56.22 67.76,58.49 28.09,2 54.68,-33.4 91.33,-30.57 32.92,2.55 61.17,39.55 92.75,28.35 22.58,-8.01 34.83,-45.86 63.74,-59.59 33.75,-16.04 77.09,10.18 103.33,-12.13 18.27,-15.53 18.12,-64.82 39.39,-83.9 23,-20.63 70.67,-18.97 84.8,-41.31 17.24,-27.26 -9,-64.96 10.44,-102.25 13.56,-26.02 54.6,-39.21 59.35,-66.69 5.25,-30.32 -29.92,-56.12 -30.13,-91.1 -0.22,-35.02 37.29,-62.79 29.61,-93.53 -6.53,-26.11 -45.11,-37.59 -59.2,-64.2 -17.69,-33.41 7.78,-77.77 -11.67,-103.77 -16.59,-22.18 -59.6,-17.32 -82.77,-40.64 -14.99,-15.08 -14.44,-18.76 -21.52,-41.36 -5.8,-18.53 -7.34,-32.13 -20.09,-42.96 -25.17,-21.37 -69.01,7.47 -105.54,-12.54 -25.73,-14.1 -38.71,-54.75 -66.45,-59.44 -30.5,-5.16 -55.1,30.43 -90.97,30.17 -35.8,-0.26 -62.01,-36.94 -92.08,-29.64z"/>
   <path class="fil1" d="M441.7 266.22c-6.42,-87.1 -71.58,-127.33 -149.48,-118.18 10.74,14.94 20.52,19.43 30.53,42.71 10.11,23.49 9.62,33.78 25.02,53.66 38.99,50.32 174.03,50.1 218.95,-18.8 18.39,-28.21 23.88,-60.3 39.34,-78.77l14.22 -14.42c3.33,-4.43 1.93,-0.1 2.62,-5.14 -50.72,-6.8 -95.11,2.84 -130.08,27.01 -32.98,22.79 -43.98,58.09 -51.13,111.94z"/>
   <path class="fil1" d="M369.44 323.86c-49.5,8.34 -63.27,59.46 -60.36,114.03 2.67,50.22 26.64,99.83 83.87,89.18 82.3,-15.32 78.94,-220.47 -23.51,-203.21z"/>
   <path class="fil1" d="M532.81 324.24c-47.67,8.65 -62.98,58.4 -59.47,112.66 3.27,50.65 25.38,99.36 82.46,90.37 84.74,-13.35 80.69,-221.84 -22.99,-203.03z"/>
   <path class="fil1" d="M160.39 345.72l0.43 27.18 36.65 0.25 -0.14 114.48 -42.66 -0.06 -0.1 36.82 125.85 0.2 -0.03 -36.91 -36.68 -0.23 -0.26 -160.03c-19.26,-1.03 -29.83,-2.19 -44.85,5.07 -14.03,6.77 -25.35,8.06 -38.22,13.23z"/>
   <path class="fil0" d="M371.65 360.49c-30.58,12.78 -30.78,144.9 14.92,131.18 21.29,-6.39 20.79,-50.47 20.15,-74.93 -0.59,-22.91 -5.17,-68.75 -35.07,-56.26z"/>
   <path class="fil0" d="M516.56 422.04c0,24.39 0.52,69.61 26.33,70.59 29.21,1.11 28.25,-48.61 28.25,-73.22 0,-25.31 -2.29,-61.1 -28.27,-60.35 -25.02,0.73 -26.31,37.84 -26.31,62.97z"/>
   <path class="fil1" d="M524.17 684.82l18.09 -0.08 0.32 -39.27c17.93,-0.18 18.02,-0.32 36.25,39.34l20.03 0.2 -23.04 -42.76c17.86,-7.44 28.91,-30.25 13.15,-48.61 -12.7,-14.79 -42.36,-10.17 -63.65,-10.57l-1.16 101.75z"/>
   <path class="fil1" d="M155.24 684.05l17.52 0.98 -1.32 -76.38c7.23,14.16 13.88,26.77 21.31,40.12 3.7,6.65 7.31,12.79 10.27,18.53 10.41,20.21 6.5,17.75 28.28,17.68l0.15 -92.63c-0.13,-0.57 0.81,-12.02 -11.43,-9.11 -1.21,0.29 -5.24,-3.45 -6.04,14.29l1.53 59.35c-8.32,-8.15 -30.2,-58.03 -42.64,-73.92l-16.96 0.41 -0.66 100.67z"/>
   <path class="fil1" d="M244.38 684.14l17.61 0.53 8.23 -26.68 34.63 -0.39 7.21 26.94 18.47 0.54 -32.33 -101.99 -19.93 0.04c-8.67,14.98 -27.51,80.06 -33.9,101.01z"/>
   <path class="fil1" d="M602.48 684.72l16.38 0.24 5.98 -13.06c1.53,-4.81 2.01,-8.2 4.52,-13.33l34.14 -0.99 7.18 26.7 18.73 0.62 -32.5 -101.14 -20.85 -0.57 -33.58 101.52z"/>
   <path class="fil1" d="M497.77 583.18l-14.79 -0.13c-4.03,23.52 11.15,87.39 -21.62,88 -33.27,0.62 -18.45,-62.06 -21.92,-87.95l-16.4 0.05c-1.98,12.92 -2,56.06 -0.3,69.34 6.03,47.13 67.78,45.95 75.07,2.74 2.24,-13.26 2.38,-59.14 -0.03,-72.06z"/>
   <path class="fil1" d="M751.15 380.04c-5.44,2.57 -11.53,3.14 -16.62,18.48 -9.04,27.28 6.19,65.78 39.35,52.56 32.45,-12.94 19.94,-91.2 -22.73,-71.05z"/>
   <path class="fil1" d="M667.02 329.89c-38.97,10.67 -28.81,84.32 14.4,73.92 33.83,-8.14 28.45,-85.65 -14.4,-73.92z"/>
   <polygon class="fil1" points="328.68,597.1 357.93,598.87 358.32,685.09 376.4,684.27 376.49,598.46 405.95,598.28 405.34,583.5 329.28,583.28 "/>
   <polygon class="fil1" points="702.53,684.85 762.95,684.86 762.45,669.76 720.55,669.52 720.5,583.4 703.5,583.04 "/>
   <path class="fil1" d="M678.14 453.59c21.29,-0.3 17.8,-6.34 27.18,-23.83 11.26,-20.99 46.84,-86.39 51.73,-101.08l-14.32 -0.21c-11.33,19.08 -22.13,41.7 -32.39,61.72 -10.2,19.91 -24.91,43.16 -32.2,63.4z"/>
   <path class="fil0" d="M461.59 256.22c9.89,-8.65 19.62,-20.01 29.82,-29.85 11.1,-10.7 20.42,-18.13 31.96,-28.43 5.84,-5.21 8.18,-9.29 13.95,-14.79l49.72 -41.28c-14.49,2.8 -28.59,12.53 -39.69,19.7 -31.95,20.64 -71.74,61.49 -85.77,94.67z"/>
   <path class="fil0" d="M542.34 630.55c15.84,0.21 35.66,2.32 35.47,-16.99 -0.18,-18.49 -20.14,-15.53 -35.16,-15.52l-0.32 32.5z"/>
   <path class="fil0" d="M424.85 256.67c-7.1,-20.66 -29.5,-47.81 -43.69,-58.74 -13.85,-10.68 -43.99,-31.39 -62.78,-36.92l56.02 43.7c22.09,16.52 30.98,34.17 50.44,51.96z"/>
   <path class="fil0" d="M766.63 437.87c7.35,-9.97 12.28,-51.41 -7.66,-44.28 -8.54,3.06 -8.5,16.62 -8.01,25.36 0.84,14.81 2.74,18.05 15.67,18.92z"/>
   <path class="fil0" d="M675.82 389.38c11.37,-9.55 12.34,-35.34 0.64,-45.27 -21.13,1.56 -19.54,43.08 -0.64,45.27z"/>
   <path class="fil0" d="M633.39 643.16l25.04 -0.06c-1.81,-7.85 -3.53,-13.46 -5.77,-21.22 -2.55,-8.83 -2.87,-14.97 -7.8,-22.02l-11.48 43.3z"/>
   <path class="fil0" d="M275.2 642.94l24.38 0.29 -11.51 -43.56c-0.09,0.54 -0.71,0.71 -0.87,1.8l-11.99 41.47z"/>
  </g>
 </g>
</svg>
